<svg id="Capa_1" enable-background="new 0 0 512 512" height="512" viewBox="0 0 512 512" width="512" xmlns="http://www.w3.org/2000/svg"><g><path d="m452 104.521v-33.342h-392v33.342h-60v336.3h512v-336.3zm-30-3.342v249.641h-151v-249.641zm-332 0h151v249.641h-151zm392 309.642h-452v-276.3h30v246.299h392v-246.299h30z"/><path d="m165.905 136.717-45 25.98v51.961l45 25.98 45-25.98v-51.961zm15 60.621-15 8.66-15-8.66v-17.32l15-8.66 15 8.66z"/><path d="m127.584 280.91h75.831v30h-75.831z"/><path d="m308.584 280.91h75.831v30h-75.831z"/><path d="m308.584 211h75.831v30h-75.831z"/><path d="m308.584 141.089h75.831v30h-75.831z"/></g></svg>