<svg id="Capa_1" enable-background="new 0 0 512 512" height="512" viewBox="0 0 512 512" width="512" xmlns="http://www.w3.org/2000/svg"><g><path d="m512 344.863v-303.685h-399.563v228.849h-27.04c-47.088 0-85.397 38.309-85.397 85.398s38.309 85.397 85.397 85.397h133.184v30h243.561l49.858-33.325v-23.35l-49.858-33.325h-243.561v30h-133.184c-30.546 0-55.397-24.851-55.397-55.397s24.851-55.397 55.397-55.397h27.04v44.836h399.563zm-263.419 65.959h204.458l22.441 15-22.441 15h-204.458zm-106.144-339.644h339.563v243.685h-339.563z"/><path d="m176.376 208.02h271.686v-102.904h-271.686zm30-72.904h211.686v42.904h-211.686z"/><path d="m176.376 250.925h57.893v30h-57.893z"/><path d="m283.272 250.925h57.893v30h-57.893z"/><path d="m390.168 250.925h57.893v30h-57.893z"/></g></svg>