<svg id="Capa_1" enable-background="new 0 0 512 512" height="512" viewBox="0 0 512 512" width="512" xmlns="http://www.w3.org/2000/svg"><g><path d="m404.722 0h-297.444v134.581h19.972v377.419h257.5v-377.419h19.972zm-30 104.581h-36.861v-74.581h36.861zm-170.583 0v-74.581h36.861v74.581zm66.861-74.581h36.861v74.581h-36.861zm-133.722 0h36.861v74.581h-36.861zm26.865 452 50.468-130.351c6.567-16.962 23.2-28.358 41.389-28.358s34.822 11.396 41.389 28.358l50.468 130.351zm190.607-65.288-29.384-75.895c-11.006-28.427-38.882-47.526-69.366-47.526s-58.36 19.1-69.366 47.526l-29.384 75.895v-282.131h197.5z"/></g></svg>