<svg id="Capa_1" enable-background="new 0 0 512 512" height="512" viewBox="0 0 512 512" width="512" xmlns="http://www.w3.org/2000/svg"><g><path d="m512 271v-30h-39.865c-1.913-28.159-9.206-55.263-21.375-80.125l34.441-19.885-15-25.98-34.478 19.906c-7.718-11.404-16.574-22.16-26.527-32.113s-20.709-18.808-32.113-26.526l19.906-34.479-25.98-15-19.884 34.442c-24.862-12.169-51.966-19.462-80.125-21.375v-39.865h-30v39.865c-28.159 1.913-55.263 9.205-80.125 21.374l-19.885-34.442-25.98 15 19.906 34.479c-11.404 7.718-22.16 16.573-32.113 26.526s-18.808 20.709-26.526 32.113l-34.48-19.905-15 25.98 34.442 19.885c-12.168 24.862-19.461 51.966-21.374 80.125h-39.865v30h39.865c1.913 28.159 9.205 55.263 21.374 80.125l-34.442 19.885 15 25.98 34.479-19.906c7.718 11.404 16.574 22.16 26.526 32.113s20.709 18.808 32.113 26.526l-19.906 34.479 25.98 15 19.885-34.442c24.862 12.169 51.966 19.461 80.125 21.374v39.866h30v-39.865c28.159-1.913 55.263-9.205 80.125-21.375l19.885 34.442 25.98-15-19.906-34.479c11.404-7.718 22.16-16.573 32.113-26.526s18.809-20.709 26.527-32.113l34.478 19.906 15-25.98-34.441-19.885c12.169-24.861 19.461-51.965 21.375-80.125zm-256 171.654c-102.921 0-186.654-83.732-186.654-186.654s83.733-186.654 186.654-186.654c102.922 0 186.654 83.732 186.654 186.654s-83.732 186.654-186.654 186.654z"/><path d="m275.081 278.493c-20.072-7.588-35.427-12.126-49.888-11.316-13.646.765-31.964 7.105-41.741 32.967-15.218 40.258 5.153 85.392 45.412 100.611 9.057 3.424 18.36 5.046 27.515 5.046 31.537 0 61.302-19.256 73.097-50.458 9.776-25.862.232-42.735-9.495-52.335-10.315-10.179-24.828-16.927-44.9-24.515zm26.332 66.243c-7.262 19.211-25.584 31.066-45.001 31.064-5.635 0-11.365-1-16.939-3.106-24.785-9.37-37.327-37.157-27.958-61.942 2.494-6.597 5.734-13.083 15.358-13.623 10.189-.57 24.747 4.565 37.602 9.425 40.696 15.386 42.507 23.45 36.938 38.182z"/><path d="m400.166 210.194c0-17.006-6.623-32.993-18.647-45.018s-28.013-18.647-45.018-18.647c-17.006 0-32.994 6.623-45.018 18.647-16.391 16.39-14.872 32.693-10.712 43.483 4.241 11 12.547 20.664 24.574 32.69 9.857 9.857 20.501 19.875 32.69 24.574 4.067 1.568 8.916 2.761 14.26 2.761 8.831 0 19.011-3.26 29.223-13.472 12.025-12.024 18.648-28.012 18.648-45.018zm-39.86 23.805c-6.201 6.202-9.947 9.938-33.747-13.863-7.784-7.784-15.328-15.87-17.796-22.269-.983-2.552-2.099-5.444 3.934-11.477 6.358-6.358 14.812-9.86 23.805-9.86s17.446 3.502 23.805 9.861c6.358 6.358 9.86 14.812 9.86 23.804s-3.503 17.446-9.861 23.804z"/><path d="m210.331 218.563c8.725-8.725 17.597-18.161 21.824-29.123 3.828-9.928 5.242-24.912-9.761-39.915-22.358-22.359-58.74-22.359-81.099 0-10.832 10.832-16.797 25.232-16.797 40.55 0 15.317 5.965 29.718 16.797 40.55 9.33 9.33 18.651 12.311 26.755 12.311 4.927 0 9.406-1.103 13.16-2.55 10.96-4.226 20.395-13.098 29.121-21.823zm-47.824-9.15c-5.165-5.166-8.01-12.033-8.01-19.337 0-7.305 2.845-14.172 8.01-19.337 5.331-5.331 12.334-7.997 19.336-7.997 7.003 0 14.006 2.666 19.337 7.997 4.353 4.354 3.687 6.081 2.982 7.909-2.017 5.23-8.423 12.079-15.045 18.702s-13.472 13.029-18.702 15.045c-1.827.706-3.554 1.371-7.908-2.982z"/><path d="m241 105.441h30v30h-30z"/><path d="m117.674 274.282h30v30h-30z"/><path d="m370.165 291.914h30v30h-30z"/></g></svg>