<svg id="Capa_1" enable-background="new 0 0 512 512" height="512" viewBox="0 0 512 512" width="512" xmlns="http://www.w3.org/2000/svg"><g><path d="m314.066.525c-23.652 0-44.704 11.305-58.066 28.785-13.363-17.48-34.415-28.785-58.066-28.785-109.141 0-197.934 88.793-197.934 197.934v115.082c0 109.141 88.793 197.934 197.934 197.934 23.652 0 44.704-11.305 58.066-28.785 13.363 17.48 34.415 28.785 58.066 28.785 109.141 0 197.934-88.793 197.934-197.934v-115.082c0-109.141-88.793-197.934-197.934-197.934zm-116.132 480.95c-81.474 0-149.572-58.325-164.761-135.411h70.061c13.531 0 24.54 11.009 24.54 24.54v29.032h30v-29.032c0-9.576-2.489-18.579-6.842-26.409 23.241-6.244 40.404-27.487 40.404-52.671v-29.032h-30v29.032c0 13.531-11.009 24.54-24.541 24.54h-106.763c-.012-.84-.032-1.679-.032-2.522v-115.083c0-92.599 75.335-167.934 167.934-167.934 23.747 0 43.066 19.319 43.066 43.066v88.05h-65.663c-13.531 0-24.54-11.009-24.54-24.54v-29.032h-30v29.032c0 9.576 2.489 18.579 6.842 26.409-23.24 6.244-40.403 27.487-40.403 52.671v29.032h30v-29.032c0-13.531 11.009-24.54 24.54-24.54h99.224v246.767c0 23.747-19.319 43.067-43.066 43.067zm116.132 0c-23.747 0-43.066-19.319-43.066-43.066v-246.767h99.225c13.531 0 24.54 11.009 24.54 24.54v29.032h30v-29.032c0-25.185-17.163-46.427-40.403-52.671 4.353-7.83 6.842-16.833 6.842-26.409v-29.032h-30v29.032c0 13.531-11.009 24.54-24.54 24.54h-65.664v-88.05c0-23.747 19.319-43.066 43.066-43.066 92.599-.001 167.934 75.334 167.934 167.933v115.082c0 .843-.02 1.682-.032 2.522h-106.763c-13.532 0-24.541-11.009-24.541-24.54v-29.032h-30v29.032c0 25.185 17.163 46.427 40.404 52.671-4.353 7.83-6.842 16.833-6.842 26.409v29.032h30v-29.032c0-13.531 11.009-24.54 24.54-24.54h70.061c-15.188 77.087-83.287 135.412-164.761 135.412z"/></g></svg>