<svg id="Capa_1" enable-background="new 0 0 512 512" height="512" viewBox="0 0 512 512" width="512" xmlns="http://www.w3.org/2000/svg"><g><path d="m255.321 215.343h-30c0 10.967-8.923 19.89-19.891 19.89s-19.891-8.923-19.891-19.89h-30c0 27.509 22.381 49.89 49.891 49.89s49.891-22.381 49.891-49.89z"/><path d="m79.954 418.415h60.522v30h-60.522z"/><path d="m460.781 328.213v-110.426h-93.124v110.426c-4.976 2.686-9.658 5.771-14.018 9.2h-90.911v-26.448c38.697-20.587 65.107-61.333 65.107-108.138v-80.422c.001-67.494-54.91-122.405-122.405-122.405s-122.406 54.911-122.406 122.405v80.422c0 46.805 26.411 87.551 65.107 108.138v26.448h-92.908l-55.223 55.223v119.364h414.22c53.916 0 97.78-43.864 97.78-97.78 0-36.3-19.797-69.043-51.219-86.007zm-72.4 23.327 9.277-3.829v-99.924h33.124v99.924l9.277 3.829c24.235 10.003 40.302 32.754 41.813 58.669h-135.305c1.512-25.915 17.579-48.666 41.814-58.669zm-167.951 64.359c22.216-6.034 39.1-25.122 41.88-48.486h65.998c-7.639 14.043-11.87 30.043-11.87 46.807 0 26.292 10.434 50.19 27.375 67.78h-123.383zm-15-385.899c50.053 0 90.935 40.003 92.364 89.716h-82.065c-11.385 0-20.647-9.262-20.647-20.646v-11.924h-30v11.924c0 11.385-9.262 20.646-20.646 20.646h-31.369c1.428-49.713 42.31-89.716 92.363-89.716zm-92.406 172.827v-53.111h31.411c13.889 0 26.488-5.623 35.647-14.708 9.159 9.085 21.757 14.708 35.647 14.708h82.107v53.111c0 50.952-41.453 92.405-92.406 92.405s-92.406-41.453-92.406-92.405zm92.406 122.405c9.381 0 18.517-1.064 27.298-3.072v38.446c0 15.052-12.246 27.298-27.298 27.298s-27.298-12.246-27.298-27.298v-38.446c8.781 2.008 17.917 3.072 27.298 3.072zm-175.43 79.83 37.649-37.648h80.901c2.78 23.364 19.664 42.452 41.88 48.486v66.1h-160.43zm384.22 76.938c-28.171 0-52.375-17.279-62.591-41.791h125.182c-10.217 24.512-34.421 41.791-62.591 41.791z"/></g></svg>