<svg id="Capa_1" enable-background="new 0 0 512 512" height="512" viewBox="0 0 512 512" width="512" xmlns="http://www.w3.org/2000/svg"><g><path d="m437.02 74.98c-48.353-48.351-112.64-74.98-181.02-74.98s-132.667 26.629-181.02 74.98c-48.351 48.353-74.98 112.64-74.98 181.02s26.629 132.667 74.98 181.02c48.353 48.351 112.64 74.98 181.02 74.98s132.667-26.629 181.02-74.98c48.351-48.353 74.98-112.64 74.98-181.02s-26.629-132.667-74.98-181.02zm-21.214 340.826c-42.686 42.686-99.439 66.194-159.806 66.194s-117.12-23.508-159.806-66.194-66.194-99.439-66.194-159.806 23.508-117.12 66.194-159.806 99.439-66.194 159.806-66.194 117.12 23.508 159.806 66.194 66.194 99.439 66.194 159.806-23.508 117.12-66.194 159.806z"/><path d="m268.62 159.17c8.139-16.141 12.265-33.539 12.265-51.713 0-18.175-4.126-35.574-12.265-51.713l-26.787 13.506c6.006 11.912 9.052 24.767 9.052 38.207 0 13.439-3.046 26.294-9.052 38.207z"/><path d="m359.221 100.704c-8.139 16.14-12.265 33.539-12.265 51.713s4.126 35.573 12.265 51.713l26.787-13.507c-6.006-11.913-9.052-24.767-9.052-38.207s3.046-26.294 9.052-38.207z"/><path d="m246.827 326.402c-9.503 9.502-20.746 16.438-33.417 20.615l9.391 28.492c17.169-5.659 32.39-15.043 45.239-27.894 12.851-12.851 22.235-28.071 27.895-45.239l-28.492-9.393c-4.177 12.673-11.114 23.916-20.616 33.419z"/><path d="m357.513 298.269 9.391-28.492c-12.672-4.177-23.915-11.113-33.417-20.615-9.503-9.502-16.438-20.745-20.615-33.417l-28.492 9.391c5.658 17.169 15.044 32.39 27.895 45.24 12.848 12.849 28.069 22.234 45.238 27.893z"/><path d="m163.491 273.627c-11.915 6.007-24.77 9.053-38.207 9.053-13.438 0-26.293-3.046-38.206-9.053l-13.508 26.788c16.142 8.139 33.54 12.266 51.714 12.266 18.172 0 35.571-4.126 51.713-12.265z"/><path d="m329.21 370.933c-12.851 12.851-22.235 28.072-27.894 45.24l28.492 9.391c4.176-12.671 11.112-23.915 20.614-33.417 9.503-9.502 20.746-16.438 33.418-20.615l-9.391-28.492c-17.168 5.658-32.388 15.043-45.239 27.893z"/><path d="m146.553 227.833c16.142 8.139 33.54 12.266 51.714 12.266s35.572-4.126 51.714-12.266l-13.508-26.787c-11.913 6.007-24.768 9.053-38.206 9.053s-26.293-3.046-38.206-9.053z"/><path d="m434.559 219.725-26.787 13.507c6.007 11.914 9.053 24.768 9.053 38.207 0 13.438-3.046 26.293-9.053 38.207l26.787 13.507c8.139-16.142 12.266-33.541 12.266-51.713-.001-18.175-4.128-35.574-12.266-51.715z"/><path d="m141.521 155.486c9.503-9.503 20.746-16.438 33.418-20.615l-9.391-28.492c-17.169 5.658-32.39 15.043-45.24 27.894-12.851 12.851-22.235 28.072-27.894 45.24l28.492 9.39c4.177-12.671 11.114-23.914 20.615-33.417z"/><path d="m168.769 359.48-28.492 9.391c5.658 17.167 15.043 32.389 27.894 45.24 12.85 12.85 28.07 22.235 45.24 27.894l9.391-28.492c-12.673-4.177-23.916-11.112-33.418-20.615-9.503-9.503-16.44-20.746-20.615-33.418z"/></g></svg>