<svg id="Capa_1" enable-background="new 0 0 512 512" height="512" viewBox="0 0 512 512" width="512" xmlns="http://www.w3.org/2000/svg"><g><path d="m397.003 25.942v-25.942h-203.951v25.942h-108.263v308.323l-39.771 26.1c-23.973 15.732-38.284 42.244-38.284 70.918v80.717h498.531v-486.058zm-131.205 396.058c-1.165-10.684-4.324-20.918-9.225-30.232h108.99v-30h-135.47c-.682-.476-1.369-.945-2.067-1.403l-39.769-26.099v-126.961h-13.469v-91.362h240.478v306.057zm101.205-392v55.942h-143.951v-55.942zm-252.214 25.942h78.263v30h-48.264v121.362h-29.999zm0 294.519v-113.156h43.468v113.156l53.309 34.985c2.815 1.847 5.417 3.93 7.802 6.204h-165.69c2.385-2.274 4.986-4.357 7.801-6.204zm-15 131.539h-63.055v-50.717c0-3.266.302-6.484.861-9.633h197.856c.558 3.149.861 6.367.861 9.633v50.717zm375.477 0h-208.954v-30h178.954v-366.058h-48.263v-30h78.263z"/><path d="m224.492 301.534h141.07v30h-141.07z"/><path d="m224.492 241.301h141.07v30h-141.07z"/><path d="m324.59 146.556h-29.388l-17.582 29.248-14.421-17.987h-38.707v30h24.309l18.641 23.251h23.983l19.83-32.988 16.578 21h37.729v-30h-23.19z"/></g></svg>