<svg id="Capa_1" enable-background="new 0 0 512 512" height="512" viewBox="0 0 512 512" width="512" xmlns="http://www.w3.org/2000/svg"><g><path d="m434.85 420.963v-363.143h-143.198c-7.212-5.301-15.522-9.181-24.519-11.252v-46.568h-146.683v262.907h58.341v26.265h30v-26.265h58.342v-86.018c8.997-2.071 17.307-5.951 24.519-11.253h35.381v255.327h-59.9v-58.006h28.299v-30h-203.282v30h28.3v58.006h-84.957v91.037h441.015v-91.037zm-284.4-188.056v-202.907h86.683v16.568c-29.675 6.83-51.878 33.442-51.878 65.16s22.203 58.331 51.878 65.161v56.018zm101.683-84.301c-20.334 0-36.878-16.543-36.878-36.878s16.543-36.877 36.878-36.877 36.877 16.543 36.877 36.877-16.542 36.878-36.877 36.878zm62.443-12.97c2.854-7.43 4.435-15.486 4.435-23.908s-1.58-16.479-4.435-23.908h90.274v333.143h-47.816v-285.327zm-164.126 227.321h86.683v58.006h-86.683zm296.057 119.043h-381.014v-31.037h381.015v31.037z"/></g></svg>