<svg id="Capa_1" enable-background="new 0 0 504.448 504.448" height="512" viewBox="0 0 504.448 504.448" width="512" xmlns="http://www.w3.org/2000/svg"><g><path d="m410.426 200.494-158.202-200.494-158.202 200.495c-26.018 32.973-40.346 74.263-40.346 116.263 0 103.493 84.197 187.69 187.69 187.69h21.715c103.493 0 187.69-84.197 187.69-187.69.001-42-14.327-83.29-40.345-116.264zm-147.344 273.954h-21.715c-86.951 0-157.69-70.739-157.69-157.69 0-35.287 12.038-69.978 33.896-97.68l134.651-170.648 134.651 170.647c21.858 27.703 33.896 62.394 33.896 97.681.001 86.951-70.738 157.69-157.689 157.69z"/><path d="m252.224 179.073c-73.164 0-132.688 59.523-132.688 132.688s59.523 132.688 132.688 132.688 132.688-59.523 132.688-132.688-59.524-132.688-132.688-132.688zm0 235.375c-56.622 0-102.688-46.065-102.688-102.688s46.065-102.688 102.688-102.688 102.688 46.065 102.688 102.688-46.066 102.688-102.688 102.688z"/><path d="m267.224 256.348h-30v40.413h-40.413v30h40.413v40.413h30v-40.413h40.413v-30h-40.413z"/></g></svg>