<svg id="Capa_1" enable-background="new 0 0 512.003 512.003" height="512" viewBox="0 0 512.003 512.003" width="512" xmlns="http://www.w3.org/2000/svg"><g><path d="m512.002 162.586h-83.961l39.797-85.019c5.798-12.385 6.73-26.389 2.629-39.433-4.103-13.044-12.884-23.993-24.726-30.83s-25.714-8.968-39.062-5.998-25.009 10.78-32.835 21.992l-97.226 139.287h-276.617v90.183h31.279v10.411c0 83.285 53.625 154.269 128.156 180.27v68.554h193.129v-68.554c74.531-26.001 128.156-96.985 128.156-180.27v-10.411h31.279v-90.182zm-113.559-122.116c7.327-10.497 21.212-13.587 32.298-7.185 11.086 6.4 15.354 19.97 9.927 31.563l-45.75 97.737h-81.714zm-75.877 441.533h-133.129v-30.774c10.631 1.844 21.558 2.815 32.708 2.815h67.713c11.15 0 22.077-.971 32.708-2.815zm128.156-218.823c0 88.701-72.163 160.864-160.864 160.864h-67.713c-88.701 0-160.864-72.163-160.864-160.864v-10.411h389.441zm31.279-40.411h-452v-30.183h452z"/></g></svg>