<svg id="Capa_1" enable-background="new 0 0 512 512" height="512" viewBox="0 0 512 512" width="512" xmlns="http://www.w3.org/2000/svg"><g><path d="m344.23 37.793v-37.793h-176.46v37.793h-109.841v474.207h396.143v-474.207zm-146.46-7.793h116.46v45.585h-116.46zm226.301 452h-336.142v-414.207h79.841v37.792h176.46v-37.792h79.841z"/><path d="m133.021 415.752h245.957v30h-245.957z"/><path d="m133.021 349.503h245.957v30h-245.957z"/><path d="m351.041 182.844-47.553-27.455-47.488 27.418-32.488-18.757v-23.673h-30v23.673l-47.488 27.417v54.835l-20.502 11.837 15 25.98 20.502-11.837 47.488 27.417 47.488-27.417 32.488 18.757v23.673h30v-23.673l47.488-27.417v-54.761l20.502-11.836-15-25.98zm-175.018 63.458v-37.515l32.488-18.757 32.489 18.757v37.515l-32.488 18.757zm159.954 0-32.488 18.757-32.489-18.757v-37.515l32.488-18.757 32.488 18.757v37.515z"/></g></svg>