<svg id="Capa_1" enable-background="new 0 0 512 512" height="512" viewBox="0 0 512 512" width="512" xmlns="http://www.w3.org/2000/svg"><g><path d="m460.518 292.015 48.375-27.929-15-25.98-48.375 27.929-79.759-46.049v-92.098l48.375-27.929-15-25.98-48.375 27.929-79.759-46.05v-55.858h-30v55.858l-79.759 46.049-48.375-27.929-15 25.98 48.375 27.929v92.098l-79.759 46.049-48.375-27.929-15 25.98 48.375 27.929v92.098l-48.374 27.93 15 25.98 48.375-27.929 79.759 46.049v55.858h30v-55.858l79.758-46.049 79.759 46.049v55.858h30v-55.858l79.759-46.049 48.375 27.929 15-25.98-48.375-27.929zm-284.277-164.127 79.759-46.049 79.759 46.049v92.098l-79.759 46.048-79.759-46.049zm-94.759 164.127 79.759-46.049 79.759 46.049v92.098l-79.759 46.049-79.759-46.049zm349.036 92.097-79.759 46.049-79.759-46.049v-92.098l79.759-46.049 79.759 46.049z"/></g></svg>