<svg id="Capa_1" enable-background="new 0 0 512 512" height="512" viewBox="0 0 512 512" width="512" xmlns="http://www.w3.org/2000/svg"><g><path d="m256 143.256c-84.515 0-153.273 68.759-153.273 153.274s68.758 153.272 153.273 153.272 153.273-68.758 153.273-153.272c0-84.515-68.758-153.274-153.273-153.274zm0 276.547c-62.896 0-114.935-47.349-122.359-108.272h29.312v-30h-29.312c2.776-22.778 11.784-43.659 25.27-60.877l20.689 20.688 21.213-21.213-20.689-20.688c17.218-13.486 38.098-22.494 60.877-25.27v29.313h30v-29.314c22.778 2.776 43.659 11.784 60.877 25.27l-20.689 20.688 21.213 21.213 20.689-20.688c13.485 17.218 22.494 38.099 25.27 60.877h-29.312v30h29.312c-7.426 60.924-59.465 108.273-122.361 108.273z"/><path d="m241 246.803h30v108.76h-30z"/><path d="m437.535 136.208 19.941 19.941 21.213-21.213-61.095-61.095-21.213 21.213 19.941 19.941-18.936 18.936c-27.429-23.921-59.966-40.241-95.023-47.89 5.786-8.763 9.167-19.248 9.167-30.511-.001-30.62-24.911-55.53-55.53-55.53s-55.529 24.91-55.529 55.529c0 11.264 3.38 21.749 9.167 30.511-35.058 7.649-67.595 23.969-95.023 47.89l-18.936-18.936 19.941-19.941-21.214-21.212-61.095 61.095 21.213 21.213 19.941-19.941 18.936 18.936c-34.196 39.21-52.872 88.86-52.872 141.385 0 57.555 22.413 111.664 63.11 152.36 40.697 40.698 94.807 63.111 152.361 63.111s111.664-22.413 152.361-63.11c40.697-40.696 63.11-94.806 63.11-152.36 0-52.525-18.676-102.175-52.872-141.385zm-207.064-80.679c0-14.077 11.452-25.529 25.529-25.529s25.529 11.452 25.529 25.529-11.452 25.53-25.529 25.53-25.529-11.453-25.529-25.53zm25.529 426.471c-102.269 0-185.471-83.202-185.471-185.471s83.202-185.47 185.471-185.47 185.471 83.202 185.471 185.471-83.202 185.47-185.471 185.47z"/></g></svg>