<svg id="Capa_1" enable-background="new 0 0 512 512" height="512" viewBox="0 0 512 512" width="512" xmlns="http://www.w3.org/2000/svg"><g><path d="m432.43 319.457v-75.818h13.519v-93.78h-24.449v-149.859h-331v149.858h-24.449v93.78h13.519v75.818l-79.57 157.509v35.035h512v-35.035zm4.98 76.391h-121.82l34.98-69.243v-82.966h51.859v82.966zm-21.462-215.99v33.78h-78.897v-33.78zm-295.448-149.858h271v119.858h-30v-89.858h-211v89.858h-30zm-24.449 183.639v-33.78h78.897v33.78zm13.519 112.965v-82.966h51.859v82.966l34.98 69.243h-121.819zm-78.503 155.396 28.691-56.794v.642h151.482v-.642l28.693 56.794zm160.363-162.543v-75.818h13.519v-93.78h-24.449v-59.859h151v59.858h-24.449v93.78h13.52v75.818l-64.571 127.817zm80.637 162.543 28.691-56.794v.642h151.482v-.642l28.693 56.794z"/></g></svg>