<svg id="Capa_1" enable-background="new 0 0 512 512" height="512" viewBox="0 0 512 512" width="512" xmlns="http://www.w3.org/2000/svg"><g><path d="m458.848 182.62v-77.016h-458.848v223.776h53.152v77.016h458.848v-223.776zm-99.668 116.76v-163.776h69.668v163.776zm-329.18-163.776h299.18v163.776h-299.18zm53.152 193.776h299.181v47.016h-299.181zm398.848 47.016h-69.667v-47.016h46.515v-116.76h23.152z"/><path d="m254.854 214.596c-1.429-22.631-19.579-40.72-42.218-42.076l-.003-.001c-4.651-.278-9.276.153-13.747 1.277-4.296 1.081-9.19.327-13.785-2.122-8.648-4.607-18.429-6.654-28.286-5.925-25.503 1.895-46.068 22.564-47.835 48.08-1.008 14.557 3.899 28.428 13.819 39.058 9.781 10.481 23.61 16.493 37.942 16.493 8.746 0 17.399-2.224 25.024-6.43 4.09-2.257 8.68-2.9 12.919-1.813 3.647.936 7.417 1.41 11.206 1.41 12.393 0 24.366-5.184 32.851-14.221 8.605-9.165 12.907-21.144 12.113-33.73zm-33.984 13.196c-2.879 3.066-6.778 4.755-10.98 4.755-1.276 0-2.538-.158-3.752-.469-11.676-2.997-24.056-1.358-34.865 4.604-3.245 1.79-6.788 2.697-10.532 2.697-6.135 0-11.82-2.472-16.009-6.961-4.183-4.482-6.251-10.349-5.824-16.518.744-10.738 9.397-19.438 20.127-20.234.56-.042 1.119-.062 1.676-.062 3.61 0 7.135.869 10.281 2.546 11.178 5.956 23.684 7.638 35.213 4.739 1.492-.375 3.055-.521 4.635-.424 7.423.444 13.604 6.604 14.073 14.021.267 4.229-1.169 8.244-4.043 11.306z"/></g></svg>