<svg id="Capa_1" enable-background="new 0 0 512 512" height="512" viewBox="0 0 512 512" width="512" xmlns="http://www.w3.org/2000/svg"><g><path d="m451.75 53.188v-34.49h-60.25v-18.698h-90.25v30.132h-30.25v-11.434h-60.25v-18.698h-90.25v30.132h-60.25v113.68h-60.25v167.397l37.415 102.436v98.355h437.17v-98.355l37.415-102.436v-258.021zm-210.75-4.49v1.323 93.79h-30.25v-95.113zm-173.585 433.302v-73.662l-37.415-102.436v-132.09h30.25v75.623h30v-189.303h30.25v144.268h30v-174.268-.132h30.25v281.209l37.415 102.436v68.355zm414.585-176.098-37.415 102.436v73.662h-165.75-30.67v-73.662l-37.415-102.436v-132.09h30.25v75.623h30v-189.303h30.25v144.268h30v-174.268-.132h30.25v174.399h30v-155.701h30.25v4.489 151.212h30v-121.211h30.25z"/></g></svg>