<svg id="Capa_1" enable-background="new 0 0 512 512" height="512" viewBox="0 0 512 512" width="512" xmlns="http://www.w3.org/2000/svg"><g><path d="m262.457 259.946v-26.977c57.436-7.385 101.964-56.592 101.964-116.005 0-64.494-52.47-116.964-116.964-116.964-64.493 0-116.963 52.47-116.963 116.963 0 59.413 44.528 108.62 101.963 116.005v26.977h-88.402v252.055h206.805v-181.507l30.646-40.975v-29.572zm-81.646-87.184 26.034-15.031-15-25.98-26.076 15.055c-3.412-9.311-5.276-19.363-5.276-29.842s1.863-20.531 5.276-29.842l26.076 15.055 15-25.98-26.034-15.031c12.911-15.395 31.042-26.269 51.646-29.867v30.11h30v-30.11c40.829 7.128 71.964 42.827 71.964 85.665 0 10.479-1.863 20.531-5.276 29.842l-26.076-15.055-15 25.98 26.034 15.031c-12.911 15.396-31.043 26.269-51.647 29.867v-30.11h-30v30.11c-20.602-3.598-38.734-14.471-51.645-29.867zm51.646 117.184v81.027h-58.402v-81.027zm-58.402 192.054v-81.027h58.402v34.093h30v-34.093h58.403v81.027zm146.805-161.484v50.458h-58.403v-81.027h81.267z"/><path d="m243.66 87.793h56.683v30h-56.683z" transform="matrix(.866 -.5 .5 .866 -14.955 149.774)"/></g></svg>