<svg id="Capa_1" enable-background="new 0 0 511.854 511.854" height="512" viewBox="0 0 511.854 511.854" width="512" xmlns="http://www.w3.org/2000/svg"><g><path d="m476.973 32.509c-21.519-20.929-50.003-32.446-80.23-32.446-.076 0-.153 0-.229 0-30.311.058-58.841 11.689-80.336 32.75-24.843 24.342-37.272 58.631-34.06 93.032l-43.119 43.118 12.207 12.207-214.252 214.251-36.954 79.771 36.6 36.599 79.771-36.954 214.25-214.251 12.207 12.207 43.12-43.12c33.961 3.16 67.933-8.954 92.188-33.208 21.958-21.958 33.932-51.154 33.716-82.209-.216-31.05-12.603-60.082-34.879-81.747zm-378.048 417.347-55.926 25.908-6.972-6.971 25.908-55.927 210.483-210.483 36.99 36.99zm357.997-274.604c-19.313 19.312-46.963 28.214-73.97 23.812l-7.585-1.236-32.54 32.539-61.402-61.403 32.539-32.539-1.236-7.585c-4.458-27.345 4.681-55.232 24.445-74.597 32.719-32.06 86.05-32.161 118.884-.228 16.475 16.023 25.636 37.491 25.796 60.449.159 22.964-8.695 44.552-24.931 60.788z"/></g></svg>