<svg id="Capa_1" enable-background="new 0 0 512 512" height="512" viewBox="0 0 512 512" width="512" xmlns="http://www.w3.org/2000/svg"><g><path d="m334.861 331.601c33.004 0 59.855-26.851 59.855-59.854v-130.645h78.659v-30h-78.659v-111.102h-119.71v111.102h-109.787c-4.858-15.228-16.902-27.273-32.131-32.131v-32.331h-30v32.332c-15.228 4.858-27.273 16.903-32.131 32.131h-32.332v30h32.332c4.858 15.228 16.902 27.273 32.131 32.131v338.766h370.287v-30h-88.279c3.403-7.002 5.315-14.857 5.315-23.151 0-11.894-4.058-23.586-11.425-32.924l-44.125-55.92-44.124 55.92c-7.368 9.338-11.426 21.03-11.426 32.925 0 8.294 1.912 16.149 5.315 23.151h-151.538v-308.768c15.228-4.858 27.273-16.903 32.131-32.131h109.788v130.644c-.001 33.004 26.85 59.855 59.854 59.855zm-25.55 127.248c0-5.181 1.768-10.273 4.977-14.341l20.573-26.073 20.573 26.072c3.209 4.068 4.977 9.161 4.977 14.342 0 12.766-10.385 23.151-23.151 23.151h-4.797c-12.766 0-23.152-10.386-23.152-23.151zm-191.223-313.284c-10.731 0-19.462-8.731-19.462-19.463 0-10.731 8.731-19.462 19.462-19.462s19.462 8.731 19.462 19.462c0 10.732-8.731 19.463-19.462 19.463zm216.773 156.036c-16.462 0-29.854-13.393-29.854-29.854v-34.094h59.709v34.094c0 16.461-13.393 29.854-29.855 29.854zm29.855-93.949h-59.709v-66.55h59.709zm-59.71-177.652h59.709v81.102h-59.709z"/></g></svg>