<svg id="Capa_1" enable-background="new 0 0 512 512" height="512" viewBox="0 0 512 512" width="512" xmlns="http://www.w3.org/2000/svg"><g><path d="m481.795 36.483-85.014-36.483h-281.562l-85.014 36.483v291.338h73.097v184.179h305.396v-184.178h73.097zm-30 201.034h-43.097v-199.757l43.097 18.495zm-157.632-207.517v60.195l-38.163 57.239-38.163-57.239v-60.195zm-160.861 297.822h45.358v38.322c0 15.55-12.651 28.201-28.201 28.201h-17.157zm-30-290.062v199.757h-43.097v-181.262zm-43.097 260.062v-30.305h43.097v30.305zm73.097 126.523h17.157c32.092 0 58.201-26.109 58.201-58.201v-68.322h-75.358v-267.822h54.535v69.279l53.163 79.736v302.985h-107.698zm245.396 57.655h-107.698v-302.985l53.163-79.737v-69.278h54.535v267.822h-75.358v68.322c0 32.092 26.109 58.201 58.201 58.201h17.157zm0-154.178v66.523h-17.157c-15.55 0-28.201-12.651-28.201-28.201v-38.322zm30-30v-30.305h43.097v30.305z"/><path d="m301.405 182.733h46.887v30h-46.887z"/></g></svg>