<svg id="Capa_1" enable-background="new 0 0 512 512" height="512" viewBox="0 0 512 512" width="512" xmlns="http://www.w3.org/2000/svg"><g><path d="m496.671 372.329c-3.303-12.328-11.209-22.632-22.263-29.014-.296-.171-.598-.324-.897-.488-2.007-22.451-11.47-46.519-27.052-70.492.141-.218.29-.435.43-.653 29.061-45.025 34.963-87.321 16.617-119.095-18.344-31.774-57.925-47.813-111.448-45.156-.259.013-.521.033-.78.046-12.971-25.481-29.083-45.71-47.522-58.675.007-.34.026-.678.026-1.02 0-26.347-21.434-47.782-47.782-47.782-26.347 0-47.782 21.435-47.782 47.782 0 .342.019.68.026 1.021-18.44 12.964-34.552 33.193-47.522 58.674-.259-.014-.521-.034-.78-.046-53.521-2.656-93.104 13.381-111.448 45.156-18.345 31.774-12.443 74.07 16.618 119.095.141.218.289.435.43.653-15.582 23.973-25.044 48.041-27.052 70.491-.298.164-.6.318-.896.489-11.055 6.382-18.962 16.685-22.265 29.014-3.304 12.328-1.608 25.205 4.773 36.258 8.84 15.312 24.934 23.882 41.461 23.882 8.101 0 16.306-2.059 23.811-6.392.3-.173.588-.36.883-.539 17.571 8.152 38.918 12.145 62.7 12.145 3.887 0 7.846-.119 11.857-.331.12.235.235.475.355.709 24.463 47.68 58.141 73.939 94.831 73.939 36.689 0 70.368-26.259 94.83-73.939.12-.234.236-.475.355-.71 4.011.212 7.97.331 11.857.331 23.776 0 45.128-3.994 62.699-12.145.295.179.584.366.884.539 7.507 4.333 15.709 6.392 23.811 6.392 16.525 0 32.621-8.571 41.461-23.882 6.382-11.052 8.078-23.929 4.774-36.257zm-59.145-204.743c11.181 19.366 7.348 47.709-10.36 78.794-13.211-15.77-28.912-31.221-46.708-45.846-3.767-22.724-9.298-44.047-16.349-63.373 35.778.208 62.237 11.059 73.417 30.425zm-104.733 237.785c-.716-.101-1.43-.2-2.15-.308-10.908-1.639-22.044-4.012-33.312-7.074 7.949-3.984 15.889-8.25 23.787-12.81 7.88-4.549 15.554-9.299 23.012-14.215-3.186 12.096-6.974 23.614-11.337 34.407zm-26.675-46.172c-16.55 9.555-33.355 17.816-50.118 24.684-16.764-6.868-33.568-15.129-50.118-24.684-16.548-9.554-32.112-19.994-46.431-31.064-2.427-17.937-3.687-36.635-3.687-55.743 0-19.12 1.266-37.802 3.702-55.761 14.324-11.078 29.874-21.495 46.416-31.046 16.548-9.554 33.371-17.812 50.118-24.678 16.747 6.866 33.57 15.124 50.118 24.678 16.542 9.551 32.092 19.968 46.416 31.046 2.437 17.96 3.702 36.642 3.702 55.762 0 19.108-1.26 37.806-3.687 55.743-14.319 11.069-29.883 21.509-46.431 31.063zm-124.761 45.863c-.72.108-1.434.207-2.15.308-4.363-10.793-8.151-22.31-11.337-34.406 7.457 4.916 15.132 9.665 23.012 14.215 7.898 4.56 15.838 8.825 23.787 12.81-11.268 3.062-22.404 5.435-33.312 7.073zm-54.789-105.635c-8.882-8.807-16.963-17.847-24.128-27.022.446-.569.888-1.139 1.342-1.708 6.873-8.627 14.496-17.083 22.78-25.31-.524 8.876-.798 17.885-.798 27.004 0 9.099.275 18.12.804 27.036zm51.856-158.014c.266-.678.538-1.346.809-2.016 11.529 1.618 23.397 4.096 35.465 7.385-7.986 4-15.937 8.272-23.816 12.821-7.889 4.555-15.547 9.292-22.964 14.178 2.98-11.278 6.475-22.111 10.506-32.368zm155.151 0c4.031 10.257 7.526 21.09 10.507 32.368-7.418-4.886-15.075-9.623-22.964-14.178-7.88-4.549-15.83-8.821-23.816-12.822 12.068-3.289 23.937-5.767 35.465-7.385.27.672.542 1.339.808 2.017zm51.863 103.974c8.285 8.227 15.907 16.684 22.78 25.31.454.57.896 1.139 1.342 1.708-7.165 9.175-15.246 18.214-24.128 27.022.529-8.916.804-17.937.804-27.036 0-9.119-.274-18.128-.798-27.004zm-129.438-215.387c9.805 0 17.782 7.977 17.782 17.782s-7.977 17.782-17.782 17.782-17.782-7.977-17.782-17.782 7.977-17.782 17.782-17.782zm-36.777 48.252c8.772 10.569 22.001 17.313 36.777 17.313s28.005-6.744 36.777-17.313c9.445 8.144 18.343 19.294 26.312 32.947-20.475 3.578-41.711 9.482-63.089 17.503-21.378-8.021-42.614-13.925-63.089-17.503 7.969-13.653 16.868-24.803 26.312-32.947zm-144.75 89.334c11.181-19.366 37.645-30.216 73.418-30.424-7.052 19.326-12.582 40.649-16.349 63.373-17.796 14.625-33.497 30.076-46.708 45.846-17.708-31.085-21.542-59.428-10.361-78.795zm-4.099 232.51c-8.49 4.902-19.388 1.982-24.291-6.509-4.902-8.491-1.982-19.388 6.509-24.291 4.114-2.375 8.907-3.006 13.494-1.776 4.588 1.229 8.422 4.171 10.797 8.285 2.375 4.113 3.006 8.905 1.776 13.493-1.229 4.588-4.172 8.423-8.285 10.798zm35.905 1.221c.513-1.389.97-2.807 1.358-4.255 3.303-12.328 1.608-25.205-4.773-36.257-6.381-11.054-16.686-18.96-29.014-22.264-1.448-.388-2.904-.701-4.364-.951 2.333-12.246 7.539-25.519 15.373-39.24 13.337 15.943 29.068 31.382 46.703 45.885 3.742 22.524 9.247 43.867 16.386 63.388-15.799-.075-29.897-2.203-41.669-6.306zm149.721 80.683c-22.363 0-44.994-17.494-63.061-48.375 20.264-3.556 41.495-9.432 63.06-17.532 21.565 8.1 42.797 13.977 63.062 17.532-18.067 30.881-40.697 48.375-63.061 48.375zm124.438-137.764c17.636-14.503 33.366-29.942 46.703-45.885 7.839 13.728 13.046 27.009 15.376 39.261-13.539 2.312-25.993 10.397-33.381 23.193-6.382 11.053-8.077 23.93-4.773 36.258.388 1.448.845 2.866 1.358 4.255-11.771 4.103-25.87 6.232-41.67 6.307 7.139-19.522 12.645-40.865 16.387-63.389zm85.479 49.35c-4.901 8.49-15.797 11.414-24.291 6.509-4.113-2.375-7.056-6.21-8.285-10.798s-.599-9.38 1.776-13.493c4.902-8.49 15.797-11.412 24.291-6.509 4.113 2.375 7.056 6.21 8.285 10.798s.599 9.38-1.776 13.493z"/><path d="m256 218.152c-29.907 0-54.239 24.332-54.239 54.239s24.332 54.239 54.239 54.239 54.238-24.332 54.238-54.239-24.331-54.239-54.238-54.239zm0 78.478c-13.365 0-24.239-10.874-24.239-24.239s10.874-24.239 24.239-24.239 24.238 10.874 24.238 24.239-10.873 24.239-24.238 24.239z"/></g></svg>