<svg id="Capa_1" enable-background="new 0 0 512 512" height="512" viewBox="0 0 512 512" width="512" xmlns="http://www.w3.org/2000/svg"><g><path d="m393.254 252.573c-16.435-24.102-38.657-43.284-64.677-55.93v-196.643h-145.155v196.643c-26.02 12.646-48.242 31.828-64.677 55.93-18.816 27.593-28.761 59.894-28.761 93.412 0 91.541 74.474 166.015 166.016 166.015s166.016-74.474 166.016-166.016c0-33.517-9.946-65.818-28.762-93.411zm-189.108-32.364 9.276-3.83v-52.624h42.578v-30h-42.578v-36.877h42.578v-30h-42.578v-36.878h85.155v186.38l9.276 3.83c44.932 18.547 75.881 58.928 82.723 105.978h-269.153c6.842-47.05 37.791-87.431 82.723-105.979zm51.854 261.791c-71.568 0-130.399-55.561-135.634-125.813h271.268c-5.235 70.252-64.066 125.813-135.634 125.813z"/></g></svg>