<svg id="Capa_1" enable-background="new 0 0 512 512" height="512" viewBox="0 0 512 512" width="512" xmlns="http://www.w3.org/2000/svg"><g><path d="m205.43 265.232c27.51 0 49.891-22.381 49.891-49.89h-30c0 10.967-8.923 19.89-19.891 19.89s-19.891-8.923-19.891-19.89h-30c0 27.51 22.381 49.89 49.891 49.89z"/><path d="m79.954 418.415h60.522v30h-60.522z"/><path d="m452.884 380.444v-153.004h-90.817v116.402l-6.43-6.43h-27.801v-215.007c0-67.494-54.911-122.405-122.406-122.405-67.494 0-122.406 54.911-122.406 122.405v215.008h-27.8l-55.224 55.223v119.364h512v-24.578zm-60.818-123.004h30.817v130.742l13.621 24.649h-58.06l13.621-24.649v-130.742zm-94.23 79.973h-35.107v-26.448c13.36-7.108 25.258-16.613 35.107-27.948zm-92.406 50.491c-15.052 0-27.298-12.246-27.298-27.298v-38.446c8.781 2.008 17.918 3.072 27.299 3.072s18.517-1.064 27.298-3.072v38.446c0 15.052-12.247 27.298-27.299 27.298zm.001-357.904c50.052 0 90.935 40.003 92.363 89.716h-49.56c-15.332 0-27.805-12.473-27.805-27.804v-8.595h-30v8.595c0 15.331-12.473 27.804-27.804 27.804h-49.56c1.43-49.713 42.312-89.716 92.366-89.716zm-92.407 119.716h49.602c16.951 0 32.221-7.335 42.804-18.998 10.583 11.662 25.853 18.998 42.805 18.998h49.602v53.111c0 50.952-41.453 92.405-92.405 92.405h-.001c-50.952 0-92.405-41.453-92.405-92.405v-53.111zm0 133.301c9.849 11.334 21.747 20.84 35.107 27.948v26.448h-35.107zm-83.024 122.045 37.649-37.648h80.901c2.78 23.364 19.664 42.452 41.88 48.486v66.1h-160.43zm190.43 76.938v-66.101c22.216-6.034 39.101-25.122 41.88-48.486h80.901l16.782 16.782-54.047 97.805zm119.793 0 21.644-39.168h91.216l21.645 39.168z"/></g></svg>