<svg id="Capa_1" enable-background="new 0 0 512 512" height="512" viewBox="0 0 512 512" width="512" xmlns="http://www.w3.org/2000/svg"><g><path d="m478.139 244.511v-30h-95.027v-58.211h-93.044v58.211h-127.074c-4.908-15.647-17.282-28.02-32.929-32.928v-33.276h-30v33.276c-15.647 4.908-28.021 17.281-32.928 32.928h-33.276v30h33.276c4.907 15.647 17.281 28.02 32.928 32.928v234.561h378.073v-30h-348.073v-204.561c15.647-4.908 28.021-17.281 32.929-32.928h127.073v11.087c-31.38 16.948-51.154 49.654-51.154 85.91 0 53.859 43.817 97.676 97.677 97.676s97.677-43.817 97.677-97.676c0-36.256-19.774-68.962-51.155-85.91v-11.087zm-363.074 5.218c-11.148 0-20.218-9.07-20.218-20.218s9.069-20.218 20.218-20.218 20.219 9.07 20.219 20.218-9.07 20.218-20.219 20.218zm205.002-63.429h33.044v28.211h-33.044zm16.523 222.885c-33.525 0-61.42-24.508-66.746-56.546h133.491c-5.325 32.037-33.22 56.546-66.745 56.546zm25.798-130.26c19.426 8.018 33.593 24.242 39.21 43.714h-130.017c5.617-19.472 19.783-35.695 39.21-43.714l9.276-3.83v-30.584h33.044v30.584z"/><path d="m290.067 93.736h30v32.259h-30z"/><path d="m290.067 32.366h30v32.258h-30z"/><path d="m353.111 0h30v32.259h-30z"/><path d="m353.111 64.625h30v61.371h-30z"/></g></svg>