<svg id="Capa_1" enable-background="new 0 0 512 512" height="512" viewBox="0 0 512 512" width="512" xmlns="http://www.w3.org/2000/svg"><g><path d="m390.673 61.203h-269.346v389.595h269.346zm-30 30v90.25h-209.346v-90.25zm-79.782 329.594h-49.781v-49.782h49.781zm0-79.781h-49.781v-49.782h49.781zm-79.782-49.782v49.782h-49.782v-49.782zm-49.782-30v-49.782h49.782v49.782zm79.782 0v-49.782h49.781v49.782zm79.782-49.782h49.782v49.782h-49.782zm-159.564 159.564h49.782v49.782h-49.782zm159.564 49.781v-129.563h49.782v129.563z"/><path d="m60.125 0v512h391.75v-512zm361.75 482h-331.75v-452h331.75z"/><path d="m256 121.328h75.136v30h-75.136z"/></g></svg>