<svg id="Capa_1" enable-background="new 0 0 512 512" height="512" viewBox="0 0 512 512" width="512" xmlns="http://www.w3.org/2000/svg"><g><path d="m442.216 0h-372.432v90.346h25.921l113.293 126.071v112.798l94.004 24.674v-137.472l113.293-126.071h25.921zm-342.432 30h312.432v30.346h-312.432zm173.218 174.917v110.081l-34.004-8.926v-101.155l-102.958-114.571h239.92z"/><path d="m256 372.897-43.215 54.767c-7.218 9.149-11.193 20.605-11.193 32.259 0 28.716 23.361 52.077 52.077 52.077h4.662c28.716 0 52.077-23.361 52.077-52.077 0-11.653-3.976-23.109-11.194-32.26zm2.331 109.103h-4.662c-12.174 0-22.077-9.903-22.077-22.077 0-4.94 1.686-9.798 4.745-13.676l19.663-24.92 19.662 24.919c3.061 3.879 4.746 8.736 4.746 13.677 0 12.174-9.903 22.077-22.077 22.077z"/></g></svg>