<svg id="Capa_1" enable-background="new 0 0 512 512" height="512" viewBox="0 0 512 512" width="512" xmlns="http://www.w3.org/2000/svg"><g><path d="m439.415 241.077h-120.874l-46.139-27.684 46.139-27.684h120.874c40.024 0 72.585-32.562 72.585-72.586s-32.562-72.586-72.585-72.586h-10.376c-40.024 0-72.585 32.562-72.585 72.586v42.586h-46.222l-66.985 40.191-54.403-32.642h-34.493v-86.293h-107.976v86.294h-46.375v30h46.375v40.27h-46.375v30h36.801l-28.614 66.428c-5.433 12.613-8.187 25.972-8.187 39.703v1.438c0 55.341 45.023 100.363 100.363 100.363s100.363-45.022 100.363-100.363v-1.438c0-13.732-2.755-27.091-8.188-39.703l-28.613-66.429h24.918l54.403-32.642 66.985 40.191h46.222v42.586c0 40.023 32.562 72.585 72.585 72.585h10.376c40.024 0 72.585-32.562 72.585-72.585.001-40.024-32.561-72.586-72.584-72.586zm-52.962-127.953c0-23.482 19.104-42.586 42.585-42.586h10.376c23.482 0 42.585 19.104 42.585 42.586s-19.104 42.586-42.585 42.586h-52.961zm-310.078-6.159h47.976v126.563h-47.976zm94.352 264.134c0 38.799-31.565 70.363-70.363 70.363s-70.364-31.565-70.364-70.363v-1.438c0-6.015.754-11.928 2.249-17.675h136.229c1.495 5.747 2.249 11.66 2.249 17.675zm-14.286-49.114h-112.156l25.18-58.457h61.796zm24.093-88.457h-26.183v-40.27h26.183l33.558 20.135zm258.881 122.72h-10.376c-23.482 0-42.585-19.104-42.585-42.585v-42.586h52.961c23.482 0 42.585 19.104 42.585 42.586s-19.104 42.585-42.585 42.585z"/></g></svg>