<svg id="Capa_1" enable-background="new 0 0 511.948 511.948" height="512" viewBox="0 0 511.948 511.948" width="512" xmlns="http://www.w3.org/2000/svg"><g><path d="m112.175 235.448c61.854 0 112.175-50.321 112.175-112.175s-50.322-112.174-112.175-112.174-112.175 50.321-112.175 112.175 50.321 112.174 112.175 112.174zm0-30c-40.187 0-73.705-29.005-80.778-67.175h161.557c-7.073 38.17-40.592 67.175-80.779 67.175zm0-164.349c40.187 0 73.706 29.005 80.779 67.175h-161.557c7.072-38.17 40.591-67.175 80.778-67.175z"/><path d="m479.145 115.005c-43.736-43.736-114.902-43.736-158.639 0s-43.737 114.902 0 158.639c21.868 21.868 50.594 32.803 79.319 32.803s57.451-10.935 79.319-32.803c43.738-43.737 43.738-114.903.001-158.639zm-137.426 21.213c16.021-16.02 37.063-24.029 58.106-24.029 16.283 0 32.556 4.818 46.512 14.411l-114.237 114.237c-21.989-31.992-18.798-76.203 9.619-104.619zm116.213 116.213c-28.417 28.416-72.627 31.607-104.619 9.619l114.238-114.238c21.989 31.991 18.797 76.202-9.619 104.619z"/><path d="m173.202 276.499c-29.963 0-58.133 11.668-79.319 32.855-43.737 43.736-43.737 114.902 0 158.639 21.187 21.188 49.356 32.855 79.319 32.855s58.132-11.668 79.319-32.855c43.737-43.736 43.737-114.902 0-158.639-21.187-21.187-49.356-32.855-79.319-32.855zm-58.106 170.281c-28.416-28.417-31.608-72.627-9.619-104.619l114.251 114.251c-13.588 9.375-29.664 14.437-46.525 14.437-21.951 0-42.586-8.548-58.107-24.069zm125.831-11.594-114.25-114.25c13.588-9.375 29.664-14.437 46.525-14.437 21.95 0 42.585 8.548 58.106 24.068 28.417 28.417 31.609 72.628 9.619 104.619z"/><path d="m337.899 347.818h30v30h-30z"/><path d="m384.825 419.776h30v30h-30z"/><path d="m429.259 340.536h30v30h-30z"/><path d="m287.65 42.512h30v30h-30z"/><path d="m384.825 11.099h30v30h-30z"/><path d="m216.228 224.763h30v30h-30z"/><path d="m15 276.499h30v30h-30z"/></g></svg>