<svg id="Capa_1" enable-background="new 0 0 512 512" height="512" viewBox="0 0 512 512" width="512" xmlns="http://www.w3.org/2000/svg"><g><path d="m437.02 74.98c-48.353-48.351-112.64-74.98-181.02-74.98s-132.667 26.629-181.02 74.98c-48.351 48.353-74.98 112.64-74.98 181.02s26.629 132.667 74.98 181.02c48.353 48.351 112.64 74.98 181.02 74.98s132.667-26.629 181.02-74.98c48.351-48.353 74.98-112.64 74.98-181.02s-26.629-132.667-74.98-181.02zm-21.214 340.826c-42.686 42.686-99.439 66.194-159.806 66.194s-117.12-23.508-159.806-66.194-66.194-99.439-66.194-159.806 23.508-117.12 66.194-159.806 99.439-66.194 159.806-66.194 117.12 23.508 159.806 66.194 66.194 99.439 66.194 159.806-23.508 117.12-66.194 159.806z"/><path d="m316.995 241.251c-2.886-11.733-9.078-22.173-17.528-30.287l62.802-108.777-12.971-7.505c-28.294-16.37-60.556-25.023-93.298-25.023-32.743 0-65.005 8.653-93.298 25.024l-12.971 7.506 62.802 108.775c-8.45 8.113-14.641 18.553-17.528 30.286h-125.596v15c0 33.327 8.905 66.04 25.753 94.602 16.338 27.696 39.693 50.854 67.54 66.967l12.996 7.52 62.799-108.77c5.56 1.616 11.429 2.5 17.504 2.5s11.944-.884 17.504-2.5l62.798 108.77 12.996-7.52c27.847-16.112 51.202-39.27 67.541-66.966 16.848-28.562 25.753-61.274 25.753-94.603v-15h-125.598zm-125.935-127.479c20.31-9.267 42.488-14.113 64.94-14.113s44.629 4.847 64.939 14.112l-47.435 82.161c-5.56-1.616-11.43-2.5-17.505-2.5s-11.944.884-17.505 2.5zm-25.968 269.936c-17.84-12.749-32.919-29.16-44.09-48.098-11.589-19.647-18.696-41.646-20.875-64.359h94.879c2.886 11.734 9.078 22.173 17.528 30.287zm58.09-127.457c0-18.096 14.722-32.818 32.818-32.818s32.818 14.723 32.818 32.818-14.722 32.818-32.818 32.818-32.818-14.722-32.818-32.818zm167.817 79.359c-11.171 18.938-26.25 35.35-44.091 48.099l-47.441-82.171c8.45-8.113 14.642-18.553 17.528-30.287h94.879c-2.179 22.714-9.286 44.713-20.875 64.359z"/></g></svg>