<svg id="Capa_1" enable-background="new 0 0 512 512" height="512" viewBox="0 0 512 512" width="512" xmlns="http://www.w3.org/2000/svg"><g><path d="m452.074 35.857v-35.857h-99.226v30.715h-53.426c-6.223-17.859-23.22-30.715-43.174-30.715s-36.952 12.856-43.175 30.715h-53.92v-30.715h-99.227v35.857c0 86.146 38.586 166.431 103.399 220.146-65.08 53.997-103.399 134.876-103.399 220.14v35.857h99.226v-30.715h53.92c6.223 17.86 23.221 30.715 43.175 30.715s36.952-12.856 43.175-30.715h53.426v30.715h99.226v-35.857c0-86.146-38.586-166.431-103.399-220.146 65.08-53.997 103.399-134.876 103.399-220.14zm-196.074 163.695c-22.724-12.485-42.161-29.277-57.534-49.048h115.067c-15.372 19.77-34.809 36.562-57.533 49.048zm76.597-79.048h-153.194c-9.431-18.558-15.775-38.744-18.59-59.789h52.259c6.223 17.86 23.221 30.716 43.176 30.716 19.954 0 36.952-12.856 43.175-30.716h51.764c-2.815 21.045-9.159 41.231-18.59 59.789zm-76.349-90.504c8.666 0 15.715 7.05 15.715 15.715s-7.05 15.716-15.715 15.716-15.716-7.05-15.716-15.716 7.05-15.715 15.716-15.715zm-127.096 452h-39.226v-5.857c0-78.802 36.56-153.418 98.298-201.68 6.926 4.574 14.084 8.874 21.468 12.875l15.797 8.559c-59.881 39.978-96.338 107.345-96.338 180.247v5.856zm127.096-61.431c-19.954 0-36.953 12.856-43.176 30.716h-52.259c2.815-21.045 9.159-41.231 18.59-59.789h153.193c9.431 18.558 15.775 38.744 18.59 59.789h-51.764c-6.222-17.86-23.22-30.716-43.174-30.716zm-57.782-59.073c15.373-19.771 34.81-36.562 57.534-49.048 22.724 12.485 42.161 29.277 57.534 49.048zm57.782 120.504c-8.666 0-15.716-7.05-15.716-15.715s7.05-15.716 15.716-15.716 15.715 7.05 15.715 15.716-7.05 15.715-15.715 15.715zm165.826-5.857v5.857h-39.226v-5.857c0-79.637-43.498-152.676-113.519-190.614l-45.346-24.569c-82.69-44.802-134.057-131.057-134.057-225.103v-5.857h39.226v5.857c0 79.637 43.498 152.676 113.519 190.614l45.346 24.569c82.69 44.802 134.057 131.057 134.057 225.103zm-119.766-251.48-15.797-8.559c59.881-39.978 96.338-107.345 96.338-180.247v-5.857h39.226v5.857c0 78.802-36.56 153.418-98.298 201.68-6.927-4.573-14.085-8.873-21.469-12.874z"/></g></svg>