<svg id="Capa_1" enable-background="new 0 0 511.72 511.72" height="512" viewBox="0 0 511.72 511.72" width="512" xmlns="http://www.w3.org/2000/svg"><g><path d="m500.606 298.267-93.695-251.599c-12.581-33.402-49.991-50.343-83.394-37.762s-50.343 49.991-37.763 83.394l8.072 21.43 26.507-9.983-8.072-21.43c-7.076-18.787 2.452-39.828 21.239-46.904s39.828 2.452 46.904 21.239l14.486 38.46-56.534 114.346 18.486 49.082h-201.965l18.486-49.082-56.534-114.346 14.486-38.46c7.076-18.787 28.117-28.315 46.904-21.239s28.315 28.117 21.239 46.904l-8.072 21.43 26.507 9.983 8.072-21.43c12.581-33.403-4.359-70.813-37.763-83.394-33.403-12.581-70.813 4.359-83.394 37.762l-93.695 251.599c-7.05 11.956-11.113 25.875-11.113 40.731v87.515c0 44.364 36.093 80.458 80.458 80.458h67.895c27.838 0 54.147-14.758 68.659-38.513l7.231-11.837c6.683-10.939 18.798-17.735 31.616-17.735s24.934 6.796 31.616 17.735l7.231 11.836c14.513 23.756 40.821 38.514 68.659 38.514h67.896c44.364 0 80.457-36.094 80.457-80.458v-87.515c.002-14.856-4.062-28.775-11.112-40.731zm-131.408-87.282 39.354-79.598 49.643 131.806c-8.426-3.003-17.489-4.652-26.933-4.652h-44.153zm-266.031-79.598 39.354 79.598-17.911 47.555h-44.152c-9.444 0-18.507 1.649-26.934 4.652zm380.228 295.126c0 28.746-23.387 52.133-52.133 52.133h-67.896c-18.037 0-35.085-9.562-44.488-24.955l-7.231-11.836c-11.792-19.302-33.168-31.293-55.787-31.293s-43.995 11.991-55.787 31.292l-7.231 11.837c-9.403 15.393-26.45 24.955-44.488 24.955h-67.896c-28.747 0-52.134-23.387-52.134-52.133v-87.515c0-9.062 2.328-17.588 6.411-25.02 5.138-9.351 13.062-16.959 22.646-21.711 6.961-3.452 14.794-5.402 23.076-5.402h350.804c8.282 0 16.115 1.951 23.076 5.402 9.584 4.752 17.508 12.359 22.646 21.711 4.083 7.432 6.411 15.958 6.411 25.02v87.515z"/></g></svg>