<svg id="Capa_1" enable-background="new 0 0 512 512" height="512" viewBox="0 0 512 512" width="512" xmlns="http://www.w3.org/2000/svg"><g><path d="m485.857 26.164c-16.872-16.872-39.305-26.164-63.165-26.164-23.861 0-46.294 9.292-63.166 26.164l-264.377 264.377-17.527 77.227-63.8 63.8c-8.899 8.899-13.8 20.731-13.8 33.316s4.901 24.417 13.8 33.316 20.731 13.8 33.316 13.8 24.417-4.901 33.316-13.8l63.8-63.8 77.227-17.527 264.377-264.377c34.828-34.83 34.828-91.502-.001-126.332zm-426.617 450.823c-3.233 3.233-7.531 5.013-12.103 5.013s-8.87-1.78-12.103-5.014c-3.233-3.232-5.013-7.531-5.013-12.103s1.78-8.87 5.013-12.103l56.257-56.257 24.206 24.206zm405.404-345.705-258.252 258.252-64.93 14.737-33.711-33.711 14.737-64.93 9.02-9.02 28.468 28.468 21.213-21.213-28.468-28.468 21.98-21.98 41.952 41.952 21.213-21.213-41.952-41.952 21.98-21.98 28.467 28.468 21.213-21.213-28.468-28.468 21.98-21.98 41.952 41.952 21.213-21.213-41.952-41.953 21.979-21.98 28.468 28.468 21.213-21.213-28.468-28.468 21.979-21.979 41.953 41.952 21.213-21.214-41.953-41.952 12.055-12.055c23.133-23.131 60.771-23.133 83.905 0 23.133 23.134 23.133 60.773.001 83.906z"/></g></svg>