<svg id="Capa_1" enable-background="new 0 0 512 512" height="512" viewBox="0 0 512 512" width="512" xmlns="http://www.w3.org/2000/svg"><g><path d="m512 361.575v-90.09h-57.559l-60.261-109.048v-162.437h-94.861v162.437l-7.328 13.261c-7.008-26.523-24.674-49.187-49.286-62.399v-113.299h-94.861v113.299c-32.277 17.326-52.628 50.899-52.628 88.127 0 27.255 10.959 51.996 28.695 70.06h-3.653c-66.311-.001-120.258 53.947-120.258 120.256 0 66.311 53.947 120.258 120.257 120.258h391.743v-90.091h-29.365v-60.334zm-214.48-133.857h98.458l24.186 43.768h-146.83zm31.799-197.718h34.861v140.175l15.22 27.543h-65.302l15.22-27.543v-140.175zm-160.752 106.64 9.277-3.829v-102.811h34.861v102.811l9.277 3.829c20.062 8.281 34.706 25.016 40.549 45.109h-134.513c5.844-20.094 20.487-36.828 40.549-45.109zm-42.585 75.109h138.585c-5.007 33.753-34.169 59.736-69.293 59.736s-64.285-25.983-69.292-59.736zm356.018 270.251h-361.743c-49.768 0-90.257-40.489-90.257-90.258 0-49.768 40.489-90.257 90.257-90.257h336.97 24.773v30.09h-361.742c-33.176 0-60.167 26.991-60.167 60.167s26.991 60.167 60.167 60.167h361.742zm-29.365-60.091h-332.377c-16.634 0-30.167-13.533-30.167-30.167s13.533-30.167 30.167-30.167h332.377z"/></g></svg>