<svg id="Capa_1" enable-background="new 0 0 511.987 511.987" height="512" viewBox="0 0 511.987 511.987" width="512" xmlns="http://www.w3.org/2000/svg"><g><path d="m355.124 167.294v-77.851h-58.616v-38.348c0-17.478-8.783-33.546-23.494-42.983-14.712-9.437-32.98-10.719-48.866-3.432l-114.246 52.414 12.51 27.268 114.244-52.414c6.652-3.052 14-2.536 20.16 1.416 6.159 3.951 9.691 10.414 9.691 17.731v38.348h-58.616v77.852c-27.92 14.933-46.961 44.379-46.961 78.193v266.499h241.154v-266.499c.001-33.814-19.04-63.261-46.96-78.194zm16.961 118.853h-75.577v-99.272h16.963c32.32 0 58.614 26.294 58.614 58.613zm-134.194-166.704h87.232v38.199c-3.814-.503-7.704-.767-11.653-.767h-63.926c-3.95 0-7.839.264-11.653.767zm11.654 67.431h16.963v99.272h-75.578v-40.659c0-32.319 26.294-58.613 58.615-58.613zm-58.615 295.113v-165.84h75.577v114.272h30v-114.272h75.577v165.84z"/></g></svg>