<svg id="Capa_1" enable-background="new 0 0 509.303 509.303" height="512" viewBox="0 0 509.303 509.303" width="512" xmlns="http://www.w3.org/2000/svg"><g><path d="m338.14 279.069v-32.942l-42.486-34.24h-26.002v-27.6c32.664-5.533 57.625-34.012 57.625-68.227 0-15.489-5.284-30.716-14.878-42.875l-57.747-73.185-57.746 73.184c-9.595 12.159-14.879 27.386-14.879 42.875 0 34.215 24.961 62.694 57.625 68.227v27.6h-26.002l-42.486 34.24v32.942c-75.656 12.035-133.67 77.722-133.67 156.712v73.522h434.318v-73.522c-.001-78.989-58.015-144.677-133.672-156.711zm-126.113-163.009c0-8.776 2.994-17.403 8.43-24.292l34.195-43.337 34.195 43.337c5.436 6.889 8.43 15.516 8.43 24.292 0 17.59-11.642 32.512-27.625 37.467v-22.008h-30v22.008c-15.983-4.956-27.625-19.877-27.625-37.467zm195.288 232.137h-137.663v-41.107h43.468c37.158 0 70.682 15.836 94.195 41.107zm-183.082-106.31h60.837l23.07 18.593v16.61h-106.977v-16.61zm-28.049 65.203h43.468v41.107h-137.663c23.513-25.271 57.037-41.107 94.195-41.107zm245.627 172.213h-374.319v-43.522c0-20.688 4.914-40.248 13.626-57.584h158.533v.182c0 39.108 31.816 70.924 70.924 70.924h53.366v-30h-53.366c-22.566 0-40.924-18.358-40.924-40.924v-.182h158.533c8.711 17.337 13.626 36.896 13.626 57.584v43.522z"/></g></svg>