<svg xmlns="http://www.w3.org/2000/svg" viewBox="0 0 411.15 83.09">
    <defs>
        <style>
            .cls-1 {
                fill: #34465e;
            }
        </style>
    </defs>
    <title>centrada</title>
    <g id="Layer_2" data-name="Layer 2">
        <g id="Layer_1-2" data-name="Layer 1"><path class="cls-1" d="M11.2,7.2H0V.6H30.5V7.2H19.3V35.6H11.2Z"/><path class="cls-1" d="M63.15,35.6,56.4,25.85H49V35.6h-8.1V.6H56a19.46,19.46,0,0,1,8.07,1.55,11.93,11.93,0,0,1,5.28,4.4A12.15,12.15,0,0,1,71.2,13.3,11.86,11.86,0,0,1,69.32,20,11.84,11.84,0,0,1,64,24.35L71.85,35.6Zm-2-26.83A8.52,8.52,0,0,0,55.55,7.2H49V19.4h6.6a8.41,8.41,0,0,0,5.55-1.6A5.56,5.56,0,0,0,63,13.3,5.55,5.55,0,0,0,61.1,8.77Z"/><path class="cls-1" d="M106.65,28.1H90.4l-3.1,7.5H79L94.6.6h8l15.65,35h-8.5ZM104.1,22,98.55,8.55,93,22Z"/><path class="cls-1" d="M158.3,20.58a8.75,8.75,0,0,1,1.7,5.47,8.09,8.09,0,0,1-3.58,7.08Q152.85,35.59,146,35.6H127.9V.6H145q6.39,0,9.82,2.45a7.74,7.74,0,0,1,3.43,6.65A8.5,8.5,0,0,1,157,14.25a8.61,8.61,0,0,1-3.42,3.15A9.2,9.2,0,0,1,158.3,20.58ZM136,6.7V15H144a8.14,8.14,0,0,0,4.55-1,3.51,3.51,0,0,0,1.55-3.1,3.46,3.46,0,0,0-1.55-3.08,8.33,8.33,0,0,0-4.55-1Zm14.27,21.75a3.58,3.58,0,0,0,1.63-3.25q0-4.35-6.45-4.35H136V29.5h9.45A9,9,0,0,0,150.22,28.45Z"/><path class="cls-1" d="M199.25,29.1v6.5h-27.1V.6H198.6V7.1H180.2v7.6h16.25V21H180.2v8.1Z"/><path class="cls-1" d="M218.67,33.88a17.4,17.4,0,0,1-6.8-6.46,17.74,17.74,0,0,1-2.47-9.32,17.78,17.78,0,0,1,2.47-9.33,17.35,17.35,0,0,1,6.8-6.44,21.68,21.68,0,0,1,18-.73,16.55,16.55,0,0,1,6.18,4.6L237.6,11a11.2,11.2,0,0,0-8.8-4.1A11.68,11.68,0,0,0,223,8.33a10.07,10.07,0,0,0-4,4,11.67,11.67,0,0,0-1.42,5.8A11.67,11.67,0,0,0,219,23.9a10.22,10.22,0,0,0,4,4,11.67,11.67,0,0,0,5.8,1.42,11.12,11.12,0,0,0,8.8-4.15l5.2,4.8a16.35,16.35,0,0,1-6.2,4.65,20.54,20.54,0,0,1-8.25,1.6A20.24,20.24,0,0,1,218.67,33.88Z"/><path class="cls-1" d="M257.82,32.05q-4.17-4.15-4.17-11.85V.6h8.1V19.9q0,9.41,7.8,9.4a7.32,7.32,0,0,0,5.8-2.28c1.33-1.51,2-3.89,2-7.12V.6h8V20.2q0,7.69-4.18,11.85T269.5,36.2Q262,36.2,257.82,32.05Z"/><path class="cls-1" d="M299.35.6h8.1V29H325v6.6H299.35Z"/><path class="cls-1" d="M358.9,28.1H342.65l-3.1,7.5h-8.3l15.6-35h8l15.65,35H362ZM356.35,22,350.8,8.55,345.25,22Z"/><path class="cls-1" d="M402.45,35.6l-6.75-9.75h-7.45V35.6h-8.1V.6H395.3a19.46,19.46,0,0,1,8.07,1.55,12,12,0,0,1,5.28,4.4,12.15,12.15,0,0,1,1.85,6.75A11.86,11.86,0,0,1,408.62,20a11.84,11.84,0,0,1-5.32,4.33l7.85,11.25ZM400.4,8.77a8.52,8.52,0,0,0-5.55-1.57h-6.6V19.4h6.6a8.41,8.41,0,0,0,5.55-1.6,5.59,5.59,0,0,0,1.9-4.5A5.58,5.58,0,0,0,400.4,8.77Z"/><path class="cls-1" d="M102.49,63.75q2.2,2.06,2.2,6.1v13H102V79.61a6.52,6.52,0,0,1-2.82,2.56,9.9,9.9,0,0,1-4.42.92,8.63,8.63,0,0,1-5.59-1.68A5.77,5.77,0,0,1,89,72.65c1.3-1.1,3.36-1.64,6.19-1.64h6.67V69.73a5.38,5.38,0,0,0-1.51-4.14,6.29,6.29,0,0,0-4.45-1.42,11.32,11.32,0,0,0-3.84.66,9.63,9.63,0,0,0-3.16,1.82l-1.28-2.12a11.3,11.3,0,0,1,3.84-2.1,14.82,14.82,0,0,1,4.73-.74C98.92,61.69,101,62.37,102.49,63.75Zm-3.19,16a6.59,6.59,0,0,0,2.55-3.18V73.13H95.26q-5.42,0-5.41,3.76a3.44,3.44,0,0,0,1.41,2.9,6.39,6.39,0,0,0,3.92,1.06A7.54,7.54,0,0,0,99.3,79.75Z"/><path class="cls-1" d="M134,81.61a5.42,5.42,0,0,1-2,1.1,8,8,0,0,1-2.46.38A5.57,5.57,0,0,1,123.37,77V64.25h-3.76v-2.4h3.76v-4.6h2.84v4.6h6.4v2.4h-6.4V76.81a4,4,0,0,0,.94,2.86,3.59,3.59,0,0,0,2.7,1,5.36,5.36,0,0,0,1.7-.28,4.37,4.37,0,0,0,1.42-.8Z"/><path class="cls-1" d="M158.09,61.85v21h-2.72V79.05a7.75,7.75,0,0,1-3.08,3,9.32,9.32,0,0,1-4.48,1.06,9,9,0,0,1-6.5-2.3c-1.58-1.54-2.38-3.78-2.38-6.74V61.85h2.84V73.77a7.06,7.06,0,0,0,1.64,5,6.21,6.21,0,0,0,4.68,1.72,6.9,6.9,0,0,0,5.24-2,7.83,7.83,0,0,0,1.92-5.62v-11Z"/><path class="cls-1" d="M209,64q2.26,2.28,2.26,6.72v12.2h-2.84V71a7.09,7.09,0,0,0-1.58-5,5.74,5.74,0,0,0-4.46-1.72,6.71,6.71,0,0,0-5.16,2,7.87,7.87,0,0,0-1.88,5.58v11h-2.84V71a7.09,7.09,0,0,0-1.58-5,5.78,5.78,0,0,0-4.5-1.72,6.71,6.71,0,0,0-5.14,2,7.83,7.83,0,0,0-1.9,5.58v11h-2.84v-21h2.72v3.84a7.61,7.61,0,0,1,3.12-3,9.78,9.78,0,0,1,4.6-1,9,9,0,0,1,4.58,1.12,6.81,6.81,0,0,1,2.9,3.32,8.2,8.2,0,0,1,3.34-3.26,10.29,10.29,0,0,1,5-1.18A8.35,8.35,0,0,1,209,64Z"/><path class="cls-1" d="M237.37,73.25h-17.6a7.54,7.54,0,0,0,2.52,5.3,8.4,8.4,0,0,0,5.76,2,9.17,9.17,0,0,0,3.6-.7,7.93,7.93,0,0,0,2.84-2.06l1.6,1.84a9,9,0,0,1-3.5,2.56,12,12,0,0,1-4.62.88,11.69,11.69,0,0,1-5.74-1.38,10.08,10.08,0,0,1-3.9-3.82,10.94,10.94,0,0,1-1.4-5.52,11.28,11.28,0,0,1,1.34-5.52,9.68,9.68,0,0,1,3.68-3.8,10.26,10.26,0,0,1,5.26-1.36,10.11,10.11,0,0,1,5.24,1.36,9.53,9.53,0,0,1,3.64,3.78,11.37,11.37,0,0,1,1.32,5.54Zm-15.26-7.18a7.64,7.64,0,0,0-2.34,5.06h14.92a7.55,7.55,0,0,0-2.34-5.06,7.73,7.73,0,0,0-10.24,0Z"/><path class="cls-1" d="M262.41,53.21V82.89h-2.72V78.73A8.69,8.69,0,0,1,256.31,82a10,10,0,0,1-4.74,1.12,10.76,10.76,0,0,1-5.36-1.36,9.81,9.81,0,0,1-3.76-3.8,12,12,0,0,1,0-11.12A9.56,9.56,0,0,1,246.21,63a10.74,10.74,0,0,1,5.36-1.34,9.89,9.89,0,0,1,4.62,1.06,8.66,8.66,0,0,1,3.38,3.1V53.21Zm-6.62,26.34a7.24,7.24,0,0,0,2.8-2.9,9.49,9.49,0,0,0,0-8.56,7.18,7.18,0,0,0-2.8-2.9,7.83,7.83,0,0,0-4-1,8,8,0,0,0-4,1,7.25,7.25,0,0,0-2.8,2.9,9.49,9.49,0,0,0,0,8.56,7.31,7.31,0,0,0,2.8,2.9,8,8,0,0,0,4,1A7.83,7.83,0,0,0,255.79,79.55Z"/><path class="cls-1" d="M270.29,56.65a2,2,0,0,1-.6-1.44,1.91,1.91,0,0,1,.6-1.4,2.15,2.15,0,0,1,3,0,1.83,1.83,0,0,1,.6,1.38,2.09,2.09,0,0,1-3.56,1.48Zm0,5.2h2.84v21h-2.84Z"/><path class="cls-1" d="M300.29,53.21V82.89h-2.72V78.73A8.69,8.69,0,0,1,294.19,82a10,10,0,0,1-4.74,1.12,10.76,10.76,0,0,1-5.36-1.36,9.81,9.81,0,0,1-3.76-3.8,12,12,0,0,1,0-11.12A9.56,9.56,0,0,1,284.09,63a10.74,10.74,0,0,1,5.36-1.34,9.89,9.89,0,0,1,4.62,1.06,8.66,8.66,0,0,1,3.38,3.1V53.21Zm-6.62,26.34a7.24,7.24,0,0,0,2.8-2.9,9.49,9.49,0,0,0,0-8.56,7.18,7.18,0,0,0-2.8-2.9,7.83,7.83,0,0,0-4-1,8,8,0,0,0-4,1,7.25,7.25,0,0,0-2.8,2.9,9.49,9.49,0,0,0,0,8.56,7.31,7.31,0,0,0,2.8,2.9,8,8,0,0,0,4,1A7.83,7.83,0,0,0,293.67,79.55Z"/><path class="cls-1" d="M321.89,63.75q2.21,2.06,2.2,6.1v13h-2.72V79.61a6.57,6.57,0,0,1-2.82,2.56,9.9,9.9,0,0,1-4.42.92,8.65,8.65,0,0,1-5.6-1.68A5.44,5.44,0,0,1,306.45,77a5.38,5.38,0,0,1,1.94-4.32c1.3-1.1,3.35-1.64,6.18-1.64h6.68V69.73a5.38,5.38,0,0,0-1.52-4.14,6.25,6.25,0,0,0-4.44-1.42,11.32,11.32,0,0,0-3.84.66,9.53,9.53,0,0,0-3.16,1.82L307,64.53a11.3,11.3,0,0,1,3.84-2.1,14.76,14.76,0,0,1,4.72-.74C318.32,61.69,320.42,62.37,321.89,63.75Zm-3.2,16a6.61,6.61,0,0,0,2.56-3.18V73.13h-6.6q-5.4,0-5.4,3.76a3.46,3.46,0,0,0,1.4,2.9,6.41,6.41,0,0,0,3.92,1.06A7.52,7.52,0,0,0,318.69,79.75Z"/></g>
    </g>
</svg>
