<svg xmlns="http://www.w3.org/2000/svg" viewBox="0 0 411.15 277.81"><defs><style>.cls-1{fill:#34465e;}</style></defs><title>Asset 1</title><g id="Layer_2" data-name="Layer 2"><g id="Layer_1-2" data-name="Layer 1"><path class="cls-1" d="M307.26,32.23v-.62a2.78,2.78,0,0,0-1.38-2.4L256.74.47l-.15-.09A2.63,2.63,0,0,0,255.9.1L255.52,0l-.34,0-.34,0a2.83,2.83,0,0,0-.4.08l-.16,0-.19.07a2.1,2.1,0,0,0-.3.15l-.17.1L205.57,28.22,157.53.48l-.06,0a3.07,3.07,0,0,0-.31-.17L156.34,0A2.56,2.56,0,0,0,156,0l-.33,0a3.12,3.12,0,0,0-.44.09L155,.17a2.85,2.85,0,0,0-.6.31L105.26,29.21a2.78,2.78,0,0,0-1.38,2.4v.61l-.3,53v3.47a2.18,2.18,0,0,0,0,.44,1.27,1.27,0,0,0,.06.28,1.42,1.42,0,0,0,.11.33,2.11,2.11,0,0,0,.16.34,2.78,2.78,0,0,0,1,1L153.21,119l0,51.82a2.21,2.21,0,0,0,0,.51,1.42,1.42,0,0,0,.05.22c0,.1.06.2.09.3s.09.19.14.29a1.85,1.85,0,0,0,.21.33l.18.23a2.92,2.92,0,0,0,.37.34,3.28,3.28,0,0,0,.31.2l0,0L204,201.37a2.66,2.66,0,0,0,.61.3l.21.07.18,0,.2,0h0l.33,0,.33,0h0l.2,0,.18,0,.21-.07a2.66,2.66,0,0,0,.61-.3l49.38-28.13.05,0a3.28,3.28,0,0,0,.31-.2,2.79,2.79,0,0,0,.76-.9,2.67,2.67,0,0,0,.23-.59,1.17,1.17,0,0,0,.05-.2,2.44,2.44,0,0,0,0-.53l0-51.82,48.22-27.83a2.78,2.78,0,0,0,1-1,2.11,2.11,0,0,0,.16-.34,1.43,1.43,0,0,0,.09-.27.14.14,0,0,0,0-.06,1.27,1.27,0,0,0,.06-.28.77.77,0,0,0,0-.15,1.42,1.42,0,0,0,0-.29V86.91ZM153.17,7.63V43.29l-10.77,6.22L111.69,31.9ZM109.42,37l30.63,17.57V66.05L109.16,83.89Zm2.51,51.71,30.89-17.84,10.38,6v35.68ZM200,31.43,169.14,49.26l-10.4-6V7.6ZM189.63,83V94.87l-30.86,17.69V76.88l10.06-5.81Zm-30.86,39,30.86,16.62v10.84l-30.89,16.64Zm44,72.25-41.1-23.42,29.79-16,11.31,6.53Zm0-66.53-10.44,6h0l-30.62-16.49,30.84-17.68,10.23,5.91Zm0-55.83-10.61,6.13L171.93,66.44V54.07l30.86-17.82Zm5.56-35.67,30.89,17.84V66.42L219,78.05l-10.61-6.13Zm34,34.82h0l10,5.79v35.71l-30.86-17.7V83Zm-34,34.45,10.23-5.91,30.84,17.68L218.8,133.78h0l-10.44-6Zm0,88.76V161.35l11.31-6.53,29.79,16Zm13.16-44.79V138.65L252.37,122l0,44.1ZM252.39,43.28l-10.37,6L211.13,31.43,252.4,7.6ZM258,7.63,299.45,31.9l-30.7,17.6L258,43.27Zm0,104.92V76.89l10.39-6,30.88,17.83Zm13.19-46.48V54.56L301.72,37,302,83.89Z"/><path class="cls-1" d="M11.2,248.81H0v-6.6H30.5v6.6H19.3v28.4H11.2Z"/><path class="cls-1" d="M63.15,277.21l-6.75-9.75H49v9.75h-8.1v-35H56a19.46,19.46,0,0,1,8.07,1.55,12,12,0,0,1,5.28,4.4,12.15,12.15,0,0,1,1.85,6.75A11.41,11.41,0,0,1,64,266l7.85,11.25Zm-2-26.82a8.52,8.52,0,0,0-5.55-1.58H49V261h6.6a8.41,8.41,0,0,0,5.55-1.6,6.3,6.3,0,0,0,0-9Z"/><path class="cls-1" d="M106.65,269.71H90.4l-3.1,7.5H79l15.6-35h8l15.65,35h-8.5Zm-2.55-6.15-5.55-13.4L93,263.56Z"/><path class="cls-1" d="M158.3,262.19a8.77,8.77,0,0,1,1.7,5.47,8.08,8.08,0,0,1-3.58,7.08q-3.57,2.47-10.42,2.47H127.9v-35H145q6.39,0,9.82,2.45a7.75,7.75,0,0,1,3.43,6.65,8.43,8.43,0,0,1-4.65,7.7A9.27,9.27,0,0,1,158.3,262.19ZM136,248.31v8.25H144a8.14,8.14,0,0,0,4.55-1.05,3.51,3.51,0,0,0,1.55-3.1,3.44,3.44,0,0,0-1.55-3.07,8.24,8.24,0,0,0-4.55-1Zm14.27,21.75a3.58,3.58,0,0,0,1.63-3.25q0-4.35-6.45-4.35H136v8.65h9.45A9,9,0,0,0,150.22,270.06Z"/><path class="cls-1" d="M199.25,270.71v6.5h-27.1v-35H198.6v6.5H180.2v7.6h16.25v6.3H180.2v8.1Z"/><path class="cls-1" d="M218.67,275.49a17.37,17.37,0,0,1-6.8-6.45,18.84,18.84,0,0,1,0-18.65,17.37,17.37,0,0,1,6.8-6.45,20.25,20.25,0,0,1,9.73-2.33,20.5,20.5,0,0,1,8.22,1.6,16.55,16.55,0,0,1,6.18,4.6l-5.2,4.8a11.2,11.2,0,0,0-8.8-4.1,11.68,11.68,0,0,0-5.8,1.43,10.13,10.13,0,0,0-4,4,12.56,12.56,0,0,0,0,11.6,10.16,10.16,0,0,0,4,4,11.67,11.67,0,0,0,5.8,1.42,11.12,11.12,0,0,0,8.8-4.15l5.2,4.8a16.15,16.15,0,0,1-6.2,4.65,20.54,20.54,0,0,1-8.25,1.6A20.13,20.13,0,0,1,218.67,275.49Z"/><path class="cls-1" d="M257.82,273.66q-4.17-4.14-4.17-11.85v-19.6h8.1v19.3q0,9.4,7.8,9.4a7.34,7.34,0,0,0,5.8-2.27c1.33-1.52,2-3.89,2-7.13v-19.3h8v19.6q0,7.71-4.18,11.85t-11.67,4.15Q262,277.81,257.82,273.66Z"/><path class="cls-1" d="M299.35,242.21h8.1v28.4H325v6.6H299.35Z"/><path class="cls-1" d="M358.9,269.71H342.65l-3.1,7.5h-8.3l15.6-35h8l15.65,35H362Zm-2.55-6.15-5.55-13.4-5.55,13.4Z"/><path class="cls-1" d="M402.45,277.21l-6.75-9.75h-7.45v9.75h-8.1v-35H395.3a19.46,19.46,0,0,1,8.07,1.55,11.58,11.58,0,0,1,7.13,11.15,11.41,11.41,0,0,1-7.2,11l7.85,11.25Zm-2.05-26.82a8.52,8.52,0,0,0-5.55-1.58h-6.6V261h6.6a8.41,8.41,0,0,0,5.55-1.6,6.3,6.3,0,0,0,0-9Z"/></g></g></svg>