<svg xmlns="http://www.w3.org/2000/svg" viewBox="0 0 298.73 298.73"><defs><style>.cls-1{fill:#34465e;}.cls-2{fill:#eae4dc;}</style></defs><title>bolita</title><g id="Layer_2" data-name="Layer 2"><g id="Layer_1-2" data-name="Layer 1"><circle class="cls-1" cx="149.37" cy="149.37" r="149.37"/><path class="cls-2" d="M251.06,80.68v-.62a2.78,2.78,0,0,0-1.38-2.4L200.54,48.92l-.15-.09a2.63,2.63,0,0,0-.69-.28l-.38-.08-.34,0-.34,0a2.83,2.83,0,0,0-.4.08l-.16.05-.19.07a2.1,2.1,0,0,0-.3.15l-.17.1-48,27.75-48-27.74-.06,0a3.07,3.07,0,0,0-.31-.17l-.82-.25-.39,0-.33,0a3.12,3.12,0,0,0-.44.09l-.19.06a2.85,2.85,0,0,0-.6.31L49.06,77.66a2.78,2.78,0,0,0-1.38,2.4v.61l-.3,53v3.47a2.18,2.18,0,0,0,0,.44,1.27,1.27,0,0,0,.06.28,1.42,1.42,0,0,0,.11.33,2.11,2.11,0,0,0,.16.34,2.78,2.78,0,0,0,1,1L97,167.42l0,51.82a2.21,2.21,0,0,0,0,.51,1.42,1.42,0,0,0,0,.22c0,.1.06.2.09.3s.09.19.14.29a1.85,1.85,0,0,0,.21.33l.18.23a2.92,2.92,0,0,0,.37.34,3.28,3.28,0,0,0,.31.2l.05,0,49.38,28.13a2.66,2.66,0,0,0,.61.3l.21.07.18,0,.2,0h0l.33,0,.33,0h0l.2,0,.18,0,.21-.07a2.66,2.66,0,0,0,.61-.3l49.38-28.13.05,0a3.28,3.28,0,0,0,.31-.2,2.79,2.79,0,0,0,.76-.9,2.67,2.67,0,0,0,.23-.59,1.17,1.17,0,0,0,.05-.2,2.44,2.44,0,0,0,0-.53l0-51.82L250,139.59a2.78,2.78,0,0,0,1-1,2.11,2.11,0,0,0,.16-.34,1.43,1.43,0,0,0,.09-.27.14.14,0,0,0,0-.06,1.27,1.27,0,0,0,.06-.28.77.77,0,0,0,0-.15,1.42,1.42,0,0,0,0-.29v-1.81ZM97,56.08V91.74L86.21,98,55.49,80.35ZM53.22,85.46,83.85,103V114.5L53,132.34Zm2.51,51.71,30.89-17.84,10.38,6V161Zm88.08-57.29L112.94,97.71l-10.4-6V56.05Zm-10.38,51.58v11.86L102.57,161V125.33l10.06-5.81Zm-30.86,39,30.86,16.62v10.84l-30.89,16.64Zm44,72.25-41.1-23.42,29.79-16,11.31,6.53Zm0-66.53-10.44,6h0l-30.62-16.49,30.84-17.68L146.59,154Zm0-55.83L136,126.5l-20.25-11.61V102.52L146.59,84.7Zm5.56-35.67L183,102.54v12.33L162.76,126.5l-10.61-6.13Zm34,34.82h0l10,5.79V161l-30.86-17.7V131.46Zm-34,34.45,10.23-5.91,30.84,17.68L162.6,182.23h0l-10.44-6Zm0,88.76V209.8l11.31-6.53,29.79,16Zm13.16-44.79V187.1l30.86-16.62,0,44.1ZM196.19,91.73l-10.37,6L154.93,79.88,196.2,56.05Zm5.57-35.65,41.49,24.27L212.55,98l-10.8-6.23Zm0,104.92V125.34l10.39-6L243,137.17Zm13.19-46.48V103l30.6-17.55.26,46.88Z"/></g></g></svg>