<svg xmlns="http://www.w3.org/2000/svg" viewBox="0 0 411.15 374.29"><defs><style>.cls-1{fill:#34465e;}.cls-2{fill:#eae4dc;}</style></defs><title>bolita tr</title><g id="Layer_2" data-name="Layer 2"><g id="Layer_1-2" data-name="Layer 1"><path class="cls-1" d="M11.2,345.29H0v-6.6H30.5v6.6H19.3v28.4H11.2Z"/><path class="cls-1" d="M63.15,373.69l-6.75-9.75H49v9.75h-8.1v-35H56a19.46,19.46,0,0,1,8.07,1.55,11.93,11.93,0,0,1,5.28,4.4,12.15,12.15,0,0,1,1.85,6.75A11.43,11.43,0,0,1,64,362.44l7.85,11.25Zm-2-26.83a8.52,8.52,0,0,0-5.55-1.57H49v12.2h6.6a8.41,8.41,0,0,0,5.55-1.6,6.31,6.31,0,0,0,0-9Z"/><path class="cls-1" d="M106.65,366.19H90.4l-3.1,7.5H79l15.6-35h8l15.65,35h-8.5ZM104.1,360l-5.55-13.4L93,360Z"/><path class="cls-1" d="M158.3,358.66a8.79,8.79,0,0,1,1.7,5.48,8.07,8.07,0,0,1-3.58,7.07q-3.57,2.48-10.42,2.48H127.9v-35H145q6.39,0,9.82,2.45a7.74,7.74,0,0,1,3.43,6.65,8.5,8.5,0,0,1-1.23,4.55,8.61,8.61,0,0,1-3.42,3.15A9.25,9.25,0,0,1,158.3,358.66ZM136,344.79V353H144a8.14,8.14,0,0,0,4.55-1.05,3.51,3.51,0,0,0,1.55-3.1,3.46,3.46,0,0,0-1.55-3.08,8.33,8.33,0,0,0-4.55-1Zm14.27,21.75a3.58,3.58,0,0,0,1.63-3.25q0-4.35-6.45-4.35H136v8.65h9.45A9,9,0,0,0,150.22,366.54Z"/><path class="cls-1" d="M199.25,367.19v6.5h-27.1v-35H198.6v6.5H180.2v7.6h16.25v6.3H180.2v8.1Z"/><path class="cls-1" d="M218.67,372a17.37,17.37,0,0,1-6.8-6.45,18.84,18.84,0,0,1,0-18.65,17.37,17.37,0,0,1,6.8-6.45,21.72,21.72,0,0,1,18-.72,16.55,16.55,0,0,1,6.18,4.6l-5.2,4.8a11.2,11.2,0,0,0-8.8-4.1,11.67,11.67,0,0,0-5.8,1.42,10.16,10.16,0,0,0-4,4,12.56,12.56,0,0,0,0,11.6,10.13,10.13,0,0,0,4,4,11.68,11.68,0,0,0,5.8,1.43,11.12,11.12,0,0,0,8.8-4.15l5.2,4.8a16.35,16.35,0,0,1-6.2,4.65,20.54,20.54,0,0,1-8.25,1.6A20.14,20.14,0,0,1,218.67,372Z"/><path class="cls-1" d="M257.82,370.14q-4.17-4.15-4.17-11.85v-19.6h8.1V358q0,9.4,7.8,9.4a7.32,7.32,0,0,0,5.8-2.28c1.33-1.51,2-3.89,2-7.12v-19.3h8v19.6q0,7.69-4.18,11.85t-11.67,4.15Q262,374.29,257.82,370.14Z"/><path class="cls-1" d="M299.35,338.69h8.1v28.4H325v6.6H299.35Z"/><path class="cls-1" d="M358.9,366.19H342.65l-3.1,7.5h-8.3l15.6-35h8l15.65,35H362ZM356.35,360l-5.55-13.4L345.25,360Z"/><path class="cls-1" d="M402.45,373.69l-6.75-9.75h-7.45v9.75h-8.1v-35H395.3a19.46,19.46,0,0,1,8.07,1.55,11.58,11.58,0,0,1,7.13,11.15,11.43,11.43,0,0,1-7.2,11.05l7.85,11.25Zm-2.05-26.83a8.52,8.52,0,0,0-5.55-1.57h-6.6v12.2h6.6a8.41,8.41,0,0,0,5.55-1.6,6.31,6.31,0,0,0,0-9Z"/><circle class="cls-1" cx="205.57" cy="149.37" r="149.37"/><path class="cls-2" d="M307.26,80.68v-.62a2.78,2.78,0,0,0-1.38-2.4L256.74,48.92l-.15-.09a2.63,2.63,0,0,0-.69-.28l-.38-.08-.34,0-.34,0a2.83,2.83,0,0,0-.4.08l-.16.05-.19.07a2.1,2.1,0,0,0-.3.15l-.17.1L205.57,76.67l-48-27.74-.06,0a3.07,3.07,0,0,0-.31-.17l-.82-.25-.39,0-.33,0a3.12,3.12,0,0,0-.44.09l-.19.06a2.85,2.85,0,0,0-.6.31L105.26,77.66a2.78,2.78,0,0,0-1.38,2.4v.61l-.3,53v3.47a2.18,2.18,0,0,0,0,.44,1.27,1.27,0,0,0,.06.28,1.42,1.42,0,0,0,.11.33,2.11,2.11,0,0,0,.16.34,2.78,2.78,0,0,0,1,1l48.22,27.83,0,51.82a2.21,2.21,0,0,0,0,.51,1.42,1.42,0,0,0,.05.22c0,.1.06.2.09.3s.09.19.14.29a1.85,1.85,0,0,0,.21.33l.18.23a2.92,2.92,0,0,0,.37.34,3.28,3.28,0,0,0,.31.2l0,0L204,249.82a2.66,2.66,0,0,0,.61.3l.21.07.18,0,.2,0h0l.33,0,.33,0h0l.2,0,.18,0,.21-.07a2.66,2.66,0,0,0,.61-.3l49.38-28.13.05,0a3.28,3.28,0,0,0,.31-.2,2.79,2.79,0,0,0,.76-.9,2.67,2.67,0,0,0,.23-.59,1.17,1.17,0,0,0,.05-.2,2.44,2.44,0,0,0,0-.53l0-51.82,48.22-27.83a2.78,2.78,0,0,0,1-1,2.11,2.11,0,0,0,.16-.34,1.43,1.43,0,0,0,.09-.27.14.14,0,0,0,0-.06,1.27,1.27,0,0,0,.06-.28.77.77,0,0,0,0-.15,1.42,1.42,0,0,0,0-.29v-1.81ZM153.17,56.08V91.74L142.41,98,111.69,80.35ZM109.42,85.46,140.05,103V114.5l-30.89,17.84Zm2.51,51.71,30.89-17.84,10.38,6V161ZM200,79.88,169.14,97.71l-10.4-6V56.05Zm-10.38,51.58v11.86L158.77,161V125.33l10.06-5.81Zm-30.86,39,30.86,16.62v10.84l-30.89,16.64Zm44,72.25-41.1-23.42,29.79-16,11.31,6.53Zm0-66.53-10.44,6h0l-30.62-16.49,30.84-17.68L202.79,154Zm0-55.83-10.61,6.13-20.25-11.61V102.52L202.79,84.7Zm5.56-35.67,30.89,17.84v12.33L219,126.5l-10.61-6.13Zm34,34.82h0l10,5.79V161l-30.86-17.7V131.46Zm-34,34.45,10.23-5.91,30.84,17.68L218.8,182.23h0l-10.44-6Zm0,88.76V209.8l11.31-6.53,29.79,16Zm13.16-44.79V187.1l30.86-16.62,0,44.1ZM252.39,91.73l-10.37,6L211.13,79.88,252.4,56.05ZM258,56.08l41.49,24.27L268.75,98,258,91.72Zm0,104.92V125.34l10.39-6,30.88,17.83Zm13.19-46.48V103l30.6-17.55.26,46.88Z"/></g></g></svg>