<svg xmlns="http://www.w3.org/2000/svg" viewBox="0 0 496.66 70.18"><defs><style>.cls-1{fill:#34465e;}.cls-2{fill:#eae4dc;}</style></defs><title>Asset 5</title><g id="Layer_2" data-name="Layer 2"><g id="Layer_1-2" data-name="Layer 1"><path class="cls-1" d="M96.72,24.27H85.52v-6.6H116v6.6h-11.2v28.4h-8.1Z"/><path class="cls-1" d="M148.67,52.67l-6.75-9.75h-7.45v9.75h-8.1v-35h15.15a19.46,19.46,0,0,1,8.07,1.55,11.58,11.58,0,0,1,7.13,11.15,11.41,11.41,0,0,1-7.2,11.05l7.85,11.25Zm-2-26.82a8.52,8.52,0,0,0-5.55-1.58h-6.6v12.2h6.6a8.41,8.41,0,0,0,5.55-1.6,5.56,5.56,0,0,0,1.9-4.5A5.56,5.56,0,0,0,146.62,25.85Z"/><path class="cls-1" d="M192.17,45.17H175.92l-3.1,7.5h-8.3l15.6-35h8l15.65,35h-8.5ZM189.62,39l-5.55-13.4L178.52,39Z"/><path class="cls-1" d="M243.82,37.65a8.77,8.77,0,0,1,1.7,5.47,8.11,8.11,0,0,1-3.58,7.08q-3.57,2.47-10.42,2.47h-18.1v-35h17.1q6.39,0,9.82,2.45a7.78,7.78,0,0,1,3.43,6.65,8.42,8.42,0,0,1-4.66,7.7A9.36,9.36,0,0,1,243.82,37.65ZM221.47,23.77V32h8.05A8.14,8.14,0,0,0,234.07,31a3.5,3.5,0,0,0,1.54-3.1,3.44,3.44,0,0,0-1.54-3.07,8.33,8.33,0,0,0-4.55-1Zm14.27,21.75a3.6,3.6,0,0,0,1.62-3.25c0-2.9-2.14-4.35-6.44-4.35h-9.45v8.65h9.45A9,9,0,0,0,235.74,45.52Z"/><path class="cls-1" d="M284.77,46.17v6.5h-27.1v-35h26.44v6.5H265.72v7.6H282v6.3H265.72v8.1Z"/><path class="cls-1" d="M304.19,51a17.37,17.37,0,0,1-6.8-6.45,17.78,17.78,0,0,1-2.47-9.33,17.77,17.77,0,0,1,2.47-9.32,17.37,17.37,0,0,1,6.8-6.45,20.22,20.22,0,0,1,9.73-2.33,20.5,20.5,0,0,1,8.22,1.6,16.55,16.55,0,0,1,6.18,4.6l-5.2,4.8a11.2,11.2,0,0,0-8.8-4.1,11.68,11.68,0,0,0-5.8,1.43,10.13,10.13,0,0,0-4,4,11.7,11.7,0,0,0-1.42,5.8,11.67,11.67,0,0,0,1.42,5.8,10.16,10.16,0,0,0,4,4,11.67,11.67,0,0,0,5.8,1.42,11.12,11.12,0,0,0,8.8-4.15l5.2,4.8a16.15,16.15,0,0,1-6.2,4.65,20.54,20.54,0,0,1-8.25,1.6A20.1,20.1,0,0,1,304.19,51Z"/><path class="cls-1" d="M343.34,49.12q-4.17-4.14-4.18-11.85V17.67h8.11V37c0,6.27,2.59,9.4,7.8,9.4a7.28,7.28,0,0,0,5.79-2.27c1.34-1.52,2-3.89,2-7.13V17.67h8v19.6q0,7.71-4.17,11.85T355,53.27Q347.52,53.27,343.34,49.12Z"/><path class="cls-1" d="M384.86,17.67H393v28.4h17.55v6.6H384.86Z"/><path class="cls-1" d="M444.41,45.17H428.16l-3.1,7.5h-8.3l15.6-35h8l15.65,35h-8.5ZM441.86,39l-5.55-13.4L430.76,39Z"/><path class="cls-1" d="M488,52.67l-6.75-9.75h-7.45v9.75h-8.1v-35h15.15a19.51,19.51,0,0,1,8.08,1.55A11.59,11.59,0,0,1,496,30.37a11.37,11.37,0,0,1-7.2,11.05l7.85,11.25Zm-2-26.82a8.48,8.48,0,0,0-5.55-1.58h-6.6v12.2h6.6a8.37,8.37,0,0,0,5.55-1.6,5.53,5.53,0,0,0,1.9-4.5A5.53,5.53,0,0,0,485.91,25.85Z"/><circle class="cls-1" cx="35.09" cy="35.09" r="35.09"/><path class="cls-2" d="M59,19v-.14a.67.67,0,0,0-.32-.57L47.11,11.49l0,0a.49.49,0,0,0-.17-.06l-.08,0h-.16l-.1,0h-.08l-.07,0,0,0L35.09,18,23.8,11.49h0l-.07,0-.19-.06h-.17l-.11,0h0l-.14.07L11.52,18.24a.69.69,0,0,0-.32.57V19l-.07,12.46v.81a.41.41,0,0,0,0,.11s0,0,0,.06l0,.08a.2.2,0,0,0,0,.08.56.56,0,0,0,.24.24l11.33,6.54V51.5s0,.08,0,.12,0,0,0,.06a.25.25,0,0,0,0,.07l0,.07.05.07L23,52,23,52l.07,0h0l11.6,6.61.15.07.05,0h.34l.05,0,.15-.07,11.6-6.61h0l.07,0a.72.72,0,0,0,.18-.21,1.21,1.21,0,0,0,0-.14l0,0a.57.57,0,0,0,0-.13V39.33l11.33-6.54a.56.56,0,0,0,.24-.24.2.2,0,0,0,0-.08.14.14,0,0,0,0-.06v0s0,0,0-.06V31.8h0Zm-36.2-5.78v8.38L20.25,23,13,18.88ZM12.5,20.08l7.2,4.12v2.7l-7.26,4.19Zm.59,12.14L20.35,28l2.44,1.41v8.38ZM33.78,18.77,26.53,23l-2.44-1.41V13.17ZM31.35,30.88v2.79L24.1,37.83V29.44l2.37-1.36ZM24.1,40.05,31.35,44V46.5l-7.26,3.91ZM34.44,57l-9.66-5.5,7-3.77,2.66,1.54Zm0-15.63L32,42.81h0l-7.19-3.87L32,34.78l2.41,1.39Zm0-13.11-2.5,1.44L27.19,27V24.08l7.25-4.18Zm1.3-8.38L43,24.09V27l-4.76,2.73-2.5-1.44Zm8,8.18h0l2.36,1.36v8.39l-7.25-4.16V30.88Zm-8,8.09,2.41-1.39,7.24,4.16L38.2,42.81h0l-2.46-1.42Zm0,20.85V49.29l2.66-1.54,7,3.77Zm3.1-10.52V44l7.25-3.9V50.41Zm7.25-24.95L43.65,23,36.4,18.77l9.69-5.6Zm1.31-8.38,9.75,5.71L49.93,23,47.4,21.55Zm0,24.65V29.45L49.83,28l7.26,4.18Zm3.1-10.92V24.2l7.19-4.12.06,11Z"/></g></g></svg>