<svg xmlns="http://www.w3.org/2000/svg" viewBox="0 0 205.56 194.52"><defs><style>.cls-1{fill:#34465e;}.cls-2{fill:#d3deef;}.cls-3{fill:#aec5e3;stroke-width:4px;}.cls-3,.cls-4{stroke:#34465e;stroke-miterlimit:10;}.cls-4{fill:none;stroke-linecap:round;stroke-width:2px;}</style></defs><title>medico</title><g id="Layer_2" data-name="Layer 2"><g id="Layer_1-2" data-name="Layer 1"><rect class="cls-1" x="29.2" y="0.9" width="36.28" height="49.04" rx="18.14"/><path class="cls-1" d="M93.54,95.9v85.72a4,4,0,0,1-4,4H81a4,4,0,0,1-4-4V99a2.41,2.41,0,0,0-2.41-2.41h0A2.41,2.41,0,0,0,72.16,99v84.6a2,2,0,0,1-2,2H23.25a2,2,0,0,1-2-2V99a2.41,2.41,0,0,0-2.41-2.41h0A2.41,2.41,0,0,0,16.43,99v82.6a4,4,0,0,1-4,4H4a4,4,0,0,1-4-4V95.9A42.09,42.09,0,0,1,42.09,53.81h9.36A42.09,42.09,0,0,1,93.54,95.9Z"/><rect class="cls-1" x="141.21" width="36.28" height="49.04" rx="18.14"/><path class="cls-1" d="M205.56,95v85.72a4,4,0,0,1-4,4H193a4,4,0,0,1-4-4V98.12a2.41,2.41,0,0,0-2.41-2.41,2.42,2.42,0,0,0-2.41,2.41v84.6a2,2,0,0,1-2,2H135.27a2,2,0,0,1-2-2V98.12a2.41,2.41,0,0,0-2.41-2.41,2.42,2.42,0,0,0-2.41,2.41v82.6a4,4,0,0,1-4,4H116a4,4,0,0,1-4-4V95A42.11,42.11,0,0,1,139.6,55.48c.66-.24,1.32-.47,2-.68s1.4-.42,2.11-.58,1.33-.34,2-.47a42.21,42.21,0,0,1,8.4-.84h9.36a41.8,41.8,0,0,1,14.12,2.43c.67.24,1.34.49,2,.77A42.09,42.09,0,0,1,205.56,95Z"/><path class="cls-2" d="M178.44,94.78v2.64a.86.86,0,0,1-.85.86h-3.4v3.38a.85.85,0,0,1-.86.86h-2.64a.85.85,0,0,1-.85-.86V98.28h-3.39a.87.87,0,0,1-.86-.86V94.78a.87.87,0,0,1,.86-.86h3.39v-3.4a.85.85,0,0,1,.85-.85h2.64a.85.85,0,0,1,.86.85v3.4h3.4A.86.86,0,0,1,178.44,94.78Z"/><path class="cls-2" d="M145.71,53.75V70.21h-2v-16C144.37,54,145,53.88,145.71,53.75Z"/><path class="cls-2" d="M179.59,56.11V72.19h-2V55.34C178.26,55.58,178.93,55.83,179.59,56.11Z"/><rect class="cls-2" x="174.76" y="71.2" width="7.65" height="7.65" rx="3.83"/><path class="cls-2" d="M156,90h-2V78.52c0-3.94-4.38-7.15-9.76-7.15s-9.77,3.21-9.77,7.15V90h-2V78.52c0-5,5.28-9.15,11.77-9.15S156,73.47,156,78.52Z"/><circle class="cls-2" cx="133.94" cy="90.12" r="1.79"/><circle class="cls-2" cx="154.48" cy="89.95" r="1.79"/><rect class="cls-3" x="63.83" y="97.28" width="76.06" height="95.24" rx="9.73"/><path class="cls-2" d="M113.27,175.08A8.15,8.15,0,0,1,98,178.26a8.14,8.14,0,1,1-5.73-13.19l1.89-21.71L99,148.9l4.8-4.5,3.27,3.52-1.6,18.31.42,0A8.14,8.14,0,0,1,113.27,175.08Z"/><path class="cls-2" d="M84,117.92a8.14,8.14,0,0,1,14.48-5.78,8.14,8.14,0,1,1,7.86,12l-.42,0,1.73,19.75-4-3-4,5.13-5.5-4.43L92.7,125.33A8.15,8.15,0,0,1,84,117.92Z"/><path class="cls-4" d="M114.5,137.65a9.17,9.17,0,0,1,0,16.9"/><path class="cls-4" d="M120.45,133.62a14.16,14.16,0,0,1,0,26.09"/></g></g></svg>