<svg xmlns="http://www.w3.org/2000/svg" viewBox="0 0 325 300"><defs><style>.a{fill:#34465e;}.b{fill:#d3deef;}.c{fill:#aec5e3;stroke-width:4px;}.c,.d{stroke:#34465e;stroke-miterlimit:10;}.d{fill:none;stroke-linecap:round;stroke-width:2px;}</style></defs><title>t1</title><path class="a" d="M78,4.7h0a27.65,27.65,0,0,1,27.64,27.64V51.79A27.64,27.64,0,0,1,78,79.42h0A27.63,27.63,0,0,1,50.39,51.79V32.34A27.64,27.64,0,0,1,78,4.7Z"/><path class="a" d="M148.42,149.45V280.06a6.09,6.09,0,0,1-6.09,6.09h-13a6.09,6.09,0,0,1-6.09-6.09V154.17a3.67,3.67,0,0,0-3.67-3.67h0a3.67,3.67,0,0,0-3.7,3.64V283.08a3,3,0,0,1-3,3H41.32a3,3,0,0,1-3-3V154.17a3.68,3.68,0,0,0-3.68-3.67h0a3.68,3.68,0,0,0-3.67,3.67h0V280a6.09,6.09,0,0,1-6.09,6.09H12A6.09,6.09,0,0,1,5.9,280V149.45A64.13,64.13,0,0,1,70,85.32H84.29A64.13,64.13,0,0,1,148.42,149.45Z"/><path class="a" d="M248.69,3.33h0A27.64,27.64,0,0,1,276.33,31V50.41a27.63,27.63,0,0,1-27.64,27.64h0a27.64,27.64,0,0,1-27.64-27.64V31A27.65,27.65,0,0,1,248.69,3.33Z"/><path class="a" d="M319.1,148.08V278.69a6.09,6.09,0,0,1-6.09,6.09H300a6.09,6.09,0,0,1-6.09-6.09V152.83a3.67,3.67,0,0,0-3.67-3.67h0a3.68,3.68,0,0,0-3.67,3.67v128.9a3,3,0,0,1-3,3H212a3,3,0,0,1-3-3V152.83a3.68,3.68,0,0,0-3.68-3.67h0a3.69,3.69,0,0,0-3.67,3.67V278.69a6.09,6.09,0,0,1-6.09,6.09H182.64a6.09,6.09,0,0,1-6.09-6.09V148.08a64.17,64.17,0,0,1,42-60.21c1-.37,2-.72,3.05-1s2.13-.64,3.21-.88,2-.52,3-.72A64.69,64.69,0,0,1,240.71,84H255a63.81,63.81,0,0,1,21.51,3.7c1,.37,2,.75,3,1.18A64.11,64.11,0,0,1,319.1,148.08Z"/><path class="b" d="M277.78,147.75v4a1.31,1.31,0,0,1-1.3,1.31H271.3v5.15a1.3,1.3,0,0,1-1.28,1.31h-4a1.3,1.3,0,0,1-1.29-1.3h0v-5.15h-5.17a1.33,1.33,0,0,1-1.31-1.31v-4a1.33,1.33,0,0,1,1.31-1.32h5.17v-5.18A1.29,1.29,0,0,1,266,140h4a1.28,1.28,0,0,1,1.31,1.28h0v5.18h5.18A1.32,1.32,0,0,1,277.78,147.75Z"/><path class="b" d="M227.91,85.23v25.08h-3V85.93A24.64,24.64,0,0,1,227.91,85.23Z"/><path class="b" d="M279.53,88.83v24.5h-3V87.65C277.51,88,278.53,88.4,279.53,88.83Z"/><path class="b" d="M278,111.82h0a5.83,5.83,0,0,1,5.83,5.83h0a5.83,5.83,0,0,1-5.83,5.82h0a5.83,5.83,0,0,1-5.83-5.82h0A5.83,5.83,0,0,1,278,111.82Z"/><path class="b" d="M243.59,140.46h-3.05V123c0-6-6.67-10.89-14.87-10.89S210.78,117,210.78,123v17.49h-3V123c0-7.62,8-13.94,17.93-13.94s17.92,6.25,17.92,13.94Z"/><circle class="b" cx="209.98" cy="140.64" r="2.73"/><circle class="b" cx="241.27" cy="140.39" r="2.73"/><rect class="c" x="103.15" y="151.55" width="115.89" height="145.11" rx="14.83" ry="14.83"/><path class="b" d="M178.48,270.09a12.42,12.42,0,0,1-23.26,4.85,12.4,12.4,0,1,1-8.73-20.1l2.88-33.08,7.37,8.45,7.31-6.86,5,5.36-2.44,27.9h.64a12.41,12.41,0,0,1,11.25,13.46Z"/><path class="b" d="M133.89,183A12.4,12.4,0,0,1,156,174.2a12.4,12.4,0,1,1,12,18.28h-.64l2.64,30.09L163.83,218l-6.1,7.82-8.38-6.75-2.21-24.78A12.4,12.4,0,0,1,133.89,183Z"/><path class="d" d="M180.36,213.06a14,14,0,0,1,0,25.75"/><path class="d" d="M189.42,206.92a21.58,21.58,0,0,1,0,39.76"/></svg>