<svg xmlns="http://www.w3.org/2000/svg" viewBox="0 0 205.15 186.05"><defs><style>.cls-1{fill:#d3deef;}.cls-1,.cls-4,.cls-5{stroke:#34465e;stroke-miterlimit:10;stroke-width:4px;}.cls-2,.cls-4{fill:#aec5e3;}.cls-3{fill:#34465e;}.cls-5{fill:none;stroke-linecap:round;}</style></defs><title>escaneo y medidas</title><g id="Layer_2" data-name="Layer 2"><g id="Layer_1-2" data-name="Layer 1"><path class="cls-1" d="M182.18,33.73h11.1A9.73,9.73,0,0,1,203,43.47V115a0,0,0,0,1,0,0H182.18a9.73,9.73,0,0,1-9.73-9.73V43.47A9.73,9.73,0,0,1,182.18,33.73Z"/><polygon class="cls-2" points="84.72 44.58 84.72 51.01 78.32 51.01 78.3 44.58 84.72 44.58"/><path class="cls-2" d="M84.72,77.66v54.8l-6.2,4.15-.13-53.06A23.63,23.63,0,0,1,84.72,77.66Z"/><polygon class="cls-2" points="99.46 44.64 99.46 51.14 93.5 51.07 90.01 51.07 90.01 44.64 99.46 44.64"/><path class="cls-2" d="M99.46,73.83V122.6L90,128.92V75.1a23.82,23.82,0,0,1,7.67-1.27Z"/><polygon class="cls-2" points="114.2 44.64 114.2 51.32 104.75 51.21 104.75 44.64 114.2 44.64"/><polygon class="cls-2" points="114.2 73.81 114.2 112.74 104.75 119.06 104.75 73.82 114.2 73.81"/><polygon class="cls-2" points="143.68 44.67 143.68 51.72 119.49 51.42 119.49 44.67 143.68 44.67"/><polygon class="cls-2" points="143.72 73.8 143.72 93.04 134.27 99.36 128.98 102.9 119.53 109.22 119.53 73.83 143.72 73.8"/><path class="cls-2" d="M174.62,44.5V74.09L165,80.34l-6.12,4L148,91.41V73.77h9a6.29,6.29,0,0,0,6.34-6.07l.15-8.82a6.08,6.08,0,0,0-1.79-4.4,6.41,6.41,0,0,0-4.48-1.87L148,52.48v-8Z"/><rect class="cls-3" x="32.41" width="36.28" height="49.04" rx="18.14"/><path class="cls-3" d="M93.54,54.24,157,55a4,4,0,0,1,3.95,4.06l-.13,7.86a4,4,0,0,1-4,3.94l-59.08.06A25.58,25.58,0,0,0,72.16,96.52v87.53a2,2,0,0,1-2,2H23.25a2,2,0,0,1-2-2V99.45A2.41,2.41,0,0,0,18.84,97h0a2.41,2.41,0,0,0-2.41,2.41v82.6a4,4,0,0,1-4,4H4a4,4,0,0,1-4-4V96.33A42.09,42.09,0,0,1,42.09,54.24Z"/><circle class="cls-4" cx="180.81" cy="60.5" r="16.09"/><circle class="cls-3" cx="176.27" cy="60.14" r="7.37"/><path class="cls-2" d="M178.16,93.64h19.28a0,0,0,0,1,0,0V108.1a0,0,0,0,1,0,0h-14.1a5.17,5.17,0,0,1-5.17-5.17V93.64A0,0,0,0,1,178.16,93.64Z"/><rect class="cls-1" x="80.37" y="146.36" width="122.79" height="17.76"/><line class="cls-5" x1="94.89" y1="154.45" x2="94.89" y2="147.55"/><line class="cls-5" x1="94.89" y1="154.45" x2="94.89" y2="147.55"/><line class="cls-5" x1="110.29" y1="155.02" x2="110.29" y2="148.12"/><line class="cls-5" x1="125.59" y1="154.83" x2="125.59" y2="147.93"/><line class="cls-5" x1="125.59" y1="154.83" x2="125.59" y2="147.93"/><line class="cls-5" x1="141" y1="155.39" x2="141" y2="148.5"/><line class="cls-5" x1="156.3" y1="155.21" x2="156.3" y2="148.31"/><line class="cls-5" x1="156.3" y1="155.21" x2="156.3" y2="148.31"/><line class="cls-5" x1="171.7" y1="155.77" x2="171.7" y2="148.87"/><line class="cls-5" x1="187.01" y1="155.58" x2="187.01" y2="148.69"/><line class="cls-5" x1="187.01" y1="155.58" x2="187.01" y2="148.69"/></g></g></svg>