<svg xmlns="http://www.w3.org/2000/svg" viewBox="0 0 325 300"><defs><style>.a{fill:#aec5e3;}.b{fill:#34465e;}.c{fill:#d3deef;stroke-width:4px;}.c,.d{stroke:#34465e;stroke-miterlimit:10;}.d{fill:none;stroke-width:2px;}</style></defs><title>t1</title><path class="a" d="M185.54,118.08l-26.61.32h-5l-31.09.36a2.58,2.58,0,0,0-2.54,2.61,3,3,0,0,0,0,.42l1.51,7.57a8.38,8.38,0,0,1-1.51,6.74l-9.08,12a3.76,3.76,0,0,0-.27,4.15l5.13,9.09a26.07,26.07,0,0,0,3.89,5.22l5.49,5.75a19.29,19.29,0,0,1,4.54,7.68l3,9.76a37,37,0,0,1,1.36,6.05,39.83,39.83,0,0,1,.34,6.17c0,.83,0,1.71-.08,2.64-.17,5.62-.38,13-.6,19.44-.22,6.71-.44,12.43-.58,14.16l-3.33,39.2a15.72,15.72,0,0,0,15.71,15.72h24.45A15.71,15.71,0,0,0,186,277.36h0l-3.83-37.28c-.15-1.52-.27-5.59-.34-10.81v-6.18c0-5.76-.08-12.2-.08-18v-12A42.47,42.47,0,0,1,183.54,181l4.39-14.63a59.85,59.85,0,0,0,2.38-15.84l.56-27a5.32,5.32,0,0,0-5.21-5.42Zm-9.69,166-7.57,1.05a2.8,2.8,0,0,1-3.13-2.39,3.37,3.37,0,0,1,0-.55v-1.3a2.75,2.75,0,0,1,1.25-2.15l5.7-3.77a2.75,2.75,0,0,0,1.27-2.28l.14-11.84a2.79,2.79,0,0,0-.48-1.61l-1.11-1.63a2.79,2.79,0,1,1,5.09-1.7l1.21,25.31A2.79,2.79,0,0,1,175.85,284.11ZM132,138.56v-7.41a2.22,2.22,0,0,1,2.21-2.22h8.6a2.2,2.2,0,0,1,1.51,3.87c-2.66,2.32-6.05,5.24-8.47,7.43a2.2,2.2,0,0,1-3.13,0,2.18,2.18,0,0,1-.66-1.71Zm11.6,108.13L144.92,213a3.61,3.61,0,0,1,3.56-3.47l18.39-.27a3.61,3.61,0,0,1,3.67,3.56l.1,7.32a3.5,3.5,0,0,1-.71,2.21L150.12,249a3.62,3.62,0,0,1-6.51-2.16ZM174.1,175l-1.19,6.93v.47l-.13,11.53a3,3,0,0,1-3,3l-12.64.12a3,3,0,0,1-2.74-4.42l7.87-15.3a3,3,0,0,1,1-1.14l6.19-4.21a3,3,0,0,1,4.74,3Zm-36.34,105,.58-10.45a1.73,1.73,0,0,1,1.76-1.62h1.13a1.7,1.7,0,0,1,1.65,1.52l.65,7.25a1.68,1.68,0,0,0,.61,1.15l4.25,3.58a1.71,1.71,0,0,1-1.07,3h0a1.62,1.62,0,0,1-.58-.11l-7.82-2.71a1.76,1.76,0,0,1-1.11-1.63Zm43.47-140.36a2.22,2.22,0,0,1-3.89,1.51l-7.42-8.46a2.21,2.21,0,0,1,.18-3.12,2.25,2.25,0,0,1,1.48-.56H179a2.22,2.22,0,0,1,2.23,2.17Z"/><path class="b" d="M191.2,117.76a7.93,7.93,0,0,0-5.69-2.33l-62.73.82a5,5,0,0,0-4,1.94,5.08,5.08,0,0,0-1,4.28l1.51,7.57a5.84,5.84,0,0,1-1,4.65l-9.09,11.94a6.45,6.45,0,0,0-.47,7l5.17,9.08a29.9,29.9,0,0,0,4.25,5.75l5.39,5.62a17.08,17.08,0,0,1,3.92,6.67l3,9.74A34.7,34.7,0,0,1,132,202c0,1.22,0,2.65-.12,4.23-.14,4.76-.32,10.83-.5,16.43-.24,7.2-.47,13.62-.62,15.41l-3.33,39.21v.22a18.36,18.36,0,0,0,18.32,18.32h24.44a18.36,18.36,0,0,0,18.32-18.32l-3.84-37.55c-.19-1.82-.32-7.91-.4-17.5,0-4.54,0-9.77-.09-15.73h0V193.18a39.46,39.46,0,0,1,1.67-11.37l4.37-14.64a62.15,62.15,0,0,0,2.61-16.65l.56-27A7.92,7.92,0,0,0,191.2,117.76Zm-5.84,47.81L181,180.21a44.85,44.85,0,0,0-1.89,12.87c0,8.74,0,21,.11,30.95,0,3.27,0,6.3.12,8.84.07,3.59.16,6.27.29,7.48l3.81,37.13a13.12,13.12,0,0,1-13.11,13H145.86a13.14,13.14,0,0,1-13.08-12.94l3.33-39.1c.32-3.65.93-24.36,1.28-36.33v-1.4h0A40.28,40.28,0,0,0,135.57,189l-3-9.73a22.23,22.23,0,0,0-5.13-8.72L122,164.9a25,25,0,0,1-3.54-4.75l-5.13-9.08a1.21,1.21,0,0,1,0-1.32l9.08-11.94a10.89,10.89,0,0,0,2-8.84l-1.6-7.57,31-.37H159l26.56-.31a2.61,2.61,0,0,1,1.95.8,2.68,2.68,0,0,1,.77,2l-.56,27a56.8,56.8,0,0,1-2.36,15.15Z"/><polygon class="b" points="169.72 164.37 156.34 172.09 142.94 164.37 142.94 148.9 156.34 141.17 169.72 148.9 169.72 164.37"/><polygon class="b" points="167.57 274.2 157.43 280.06 147.3 274.2 147.3 262.5 157.43 256.65 167.57 262.5 167.57 274.2"/><polygon class="b" points="180.6 204.7 180.79 204.59 189.38 209.56 189.38 219.48 180.79 224.44 180.6 204.7"/><polygon class="b" points="134.72 224.44 126.12 219.48 126.12 209.56 134.72 204.59 134.72 224.44"/><path class="b" d="M156.41,156.56a2.6,2.6,0,0,1-2.6-2.6h0V119.14a2.61,2.61,0,0,1,5.21,0V154a2.6,2.6,0,0,1-2.61,2.6Z"/><path class="b" d="M156.91,293.89a2.6,2.6,0,0,1-2.6-2.6h0V270.66a2.6,2.6,0,1,1,5.19-.4,2.67,2.67,0,0,1,0,.4v20.63a2.58,2.58,0,0,1-2.57,2.6Z"/><path class="b" d="M157.4,262.07a2.58,2.58,0,0,1-2.12-4.08l23.83-33.79a2.61,2.61,0,0,1,4.25,3L159.52,261A2.54,2.54,0,0,1,157.4,262.07Z"/><path class="b" d="M135,202a2.6,2.6,0,0,1-2.6-2.58,2.63,2.63,0,0,1,.48-1.51L154.6,167a2.61,2.61,0,1,1,4.25,3h0L137.17,200.9A2.58,2.58,0,0,1,135,202Z"/><rect class="c" x="10.17" y="19.32" width="304.67" height="13.31"/><rect class="b" x="145.48" y="4.23" width="27.17" height="41.19"/><rect class="b" x="154.07" y="44.42" width="10.01" height="7.86"/><path class="d" d="M158.64,47V56.2a4.72,4.72,0,0,0,4.72,4.72h51.47a4.73,4.73,0,0,1,4.73,4.72v7.07a4.73,4.73,0,0,1-4.73,4.73H105a4.72,4.72,0,0,0-4.73,4.72v5.59a4.7,4.7,0,0,0,4.71,4.7H216.78a4.73,4.73,0,0,1,4.73,4.73v5.35a4.73,4.73,0,0,1-4.73,4.73H160.35a4.72,4.72,0,0,0-4.72,4.72h0v4.27"/></svg>