<svg xmlns="http://www.w3.org/2000/svg" viewBox="0 0 133.89 161.52"><defs><style>.cls-1{fill:#aec5e3;}.cls-2{fill:#34465e;}.cls-3{fill:#d3deef;}</style></defs><title>terminada</title><g id="Layer_2" data-name="Layer 2"><g id="Layer_1-2" data-name="Layer 1"><path class="cls-1" d="M88,3l-24.31.28-3.82.05-28.33.33a2.32,2.32,0,0,0-2.24,2.8l1.42,6.77a7.51,7.51,0,0,1-1.36,6.05L21.23,30A3.42,3.42,0,0,0,21,33.78L25.61,42a23.71,23.71,0,0,0,3.5,4.71l4.83,5.06A17.56,17.56,0,0,1,38,58.66l2.73,8.77a33.69,33.69,0,0,1,1.28,6,31,31,0,0,1,.24,4.72c0,.11,0,.22,0,.33,0,.74,0,1.54-.07,2.38-.14,5-.34,11.68-.54,17.49-.19,6-.39,11.18-.52,12.73l-3,35.28a14.15,14.15,0,0,0,14.14,14.15h22a14.16,14.16,0,0,0,14.15-14.15L85,112.82c-.14-1.42-.24-5.31-.31-10.3,0-1.37,0-2.83,0-4.34V97.9c0-5.29-.07-11.22-.08-16.58,0-4.12,0-7.9,0-10.79a38.06,38.06,0,0,1,1.6-10.91l3.94-13.17a53.68,53.68,0,0,0,2.25-14.29L92.8,7.87A4.76,4.76,0,0,0,88,3ZM39.81,21.43V14.76a2,2,0,0,1,2-2h7.62a2,2,0,0,1,1.31,3.49l-7.61,6.68A2,2,0,0,1,39.81,21.43ZM77.73,54.2l-1,6.24a3,3,0,0,0,0,.42l-.13,10.38a2.74,2.74,0,0,1-2.7,2.7L62.43,74a2.73,2.73,0,0,1-2.46-4L67,56.29a2.88,2.88,0,0,1,.89-1l5.58-3.79A2.72,2.72,0,0,1,77.73,54.2ZM50.25,118.72l1.23-30.29a3.25,3.25,0,0,1,3.21-3.12l16.55-.24a3.26,3.26,0,0,1,3.3,3.2l.1,6.59a3.25,3.25,0,0,1-.65,2l-17.88,24a3.26,3.26,0,0,1-5.86-2ZM80.61,23.66c-2.08-2.38-4.69-5.37-6.67-7.62a2,2,0,0,1,1.5-3.31h6.67a2,2,0,0,1,2,2v7.61A2,2,0,0,1,80.61,23.66ZM45,148.64l.52-9.4a1.52,1.52,0,0,1,1.57-1.45l1,0a1.53,1.53,0,0,1,1.48,1.39l.6,6.53a1.5,1.5,0,0,0,.54,1L54.6,150a1.52,1.52,0,0,1,.55,1.17,1.52,1.52,0,0,1-2,1.45l-7-2.45A1.52,1.52,0,0,1,45,148.64Zm24.58,2.06.07-1.17a2.53,2.53,0,0,1,1.12-1.95L76,144.2a2.52,2.52,0,0,0,1.13-2.06l.14-10.65a2.55,2.55,0,0,0-.44-1.44l-1-1.47a2.51,2.51,0,1,1,4.58-1.53l1.07,22.75a2.52,2.52,0,0,1-2.16,2.6l-6.81.93A2.5,2.5,0,0,1,69.62,150.7Z"/><path class="cls-2" d="M92.84,2A6.68,6.68,0,0,0,88,0H88L31.51.66a4.32,4.32,0,0,0-4.18,5.2l1.42,6.78a5.52,5.52,0,0,1-1,4.44L19.64,27.83a5.42,5.42,0,0,0-.4,5.93L23.87,42a25.59,25.59,0,0,0,3.79,5.1l4.84,5.06a15.69,15.69,0,0,1,3.61,6.13L38.84,67a31.86,31.86,0,0,1,1.43,10.4c0,1-.06,2.27-.11,3.62-.12,4.36-.28,10-.46,15.18-.2,6.41-.41,12.08-.55,13.69l-3,35.29v.17a16.16,16.16,0,0,0,16.14,16.14h22a16.16,16.16,0,0,0,16.14-16.14L87,111.62c-.19-1.86-.3-8.17-.36-15.59,0-4.69-.06-9.82-.07-14.56s0-8.86,0-11.94A35.78,35.78,0,0,1,88,59.2L92,46A56,56,0,0,0,94.31,31.2L94.8,6.91A6.66,6.66,0,0,0,92.84,2Zm-8.64,56a40.22,40.22,0,0,0-1.68,11.48c0,7.9,0,19,.09,28h0c0,2.45.06,4.75.09,6.77h0c.07,3.73.16,6.53.29,7.73l3.43,33.44a12.17,12.17,0,0,1-12.14,12.05h-22a12.16,12.16,0,0,1-12.14-12.06l3-35.2c.28-3.29.83-21.91,1.14-32.71,0-.45,0-.9,0-1.35a35.07,35.07,0,0,0-.57-6.14,36.59,36.59,0,0,0-1-4.22l-2.73-8.78a19.86,19.86,0,0,0-4.54-7.7L30.55,44.3A22.11,22.11,0,0,1,27.35,40l-4.63-8.2a1.41,1.41,0,0,1,.11-1.54L31,19.49a9.48,9.48,0,0,0,1.71-7.67L31.25,5.05a.32.32,0,0,1,.3-.39l28.23-.33,4,0L88,4a2.85,2.85,0,0,1,2,.82,2.7,2.7,0,0,1,.8,2l-.49,24.3a52.19,52.19,0,0,1-2.16,13.76Z"/><polygon class="cls-2" points="73.75 42.64 61.7 49.6 49.65 42.64 49.65 28.73 61.7 21.77 73.75 28.73 73.75 42.64"/><polygon class="cls-2" points="71.82 142.48 62.7 147.75 53.58 142.48 53.58 131.95 62.7 126.69 71.82 131.95 71.82 142.48"/><polygon class="cls-2" points="83.54 78.94 83.71 78.84 91.44 83.31 91.44 92.24 83.71 96.7 83.54 78.94"/><polygon class="cls-2" points="42.26 97.7 34.52 93.24 34.52 84.31 42.26 79.84 42.26 97.7"/><path class="cls-2" d="M61.78,35.28a2,2,0,0,1-2-1.92V3.21a2,2,0,0,1,4,0V33.36A2,2,0,0,1,61.78,35.28Z"/><path class="cls-2" d="M62.22,158.86a2,2,0,0,1-2-2V138.29a2,2,0,0,1,4,0v18.57A2,2,0,0,1,62.22,158.86Z"/><path class="cls-2" d="M62.66,131.23a2,2,0,0,1-1.15-.37,2,2,0,0,1-.48-2.78l21.44-30.4A2,2,0,1,1,85.74,100L64.3,130.38A2,2,0,0,1,62.66,131.23Z"/><path class="cls-2" d="M42.55,76.18a2,2,0,0,1-1.15-.37A2,2,0,0,1,40.91,73l19.51-27.8a2,2,0,1,1,3.27,2.3L44.18,75.33A2,2,0,0,1,42.55,76.18Z"/><path class="cls-3" d="M20.79,116.19h0a5.94,5.94,0,0,0-6,5.93V122a5.94,5.94,0,0,0-5.95-5.83h0a6.09,6.09,0,0,0,5.95-6h0a6,6,0,0,0,5.83,6Z"/><path class="cls-3" d="M11.91,103.15h0a5.94,5.94,0,0,0-6,5.93V109A5.94,5.94,0,0,0,0,103.15H0a6.09,6.09,0,0,0,6-6H6a6,6,0,0,0,5.83,6Z"/><path class="cls-3" d="M133.89,46.17h0a5.93,5.93,0,0,0-5.95,5.93V52a5.94,5.94,0,0,0-6-5.83h0a6.11,6.11,0,0,0,6-6h0a6,6,0,0,0,5.82,6Z"/><path class="cls-3" d="M125.1,28.69h0a5.93,5.93,0,0,0-5.95,5.93v-.1a6,6,0,0,0-6-5.83h0a6.1,6.1,0,0,0,6-6h0a6,6,0,0,0,5.82,6Z"/></g></g></svg>