<svg id="Capa_1" enable-background="new 0 0 511.684 511.684" height="512" viewBox="0 0 511.684 511.684" width="512" xmlns="http://www.w3.org/2000/svg"><g><path d="m447.619 85.278 64.064-64.065-21.213-21.213-64.064 64.065-27.098-27.098-42.844 42.844-23.091-23.091-234.198 234.198 23.091 23.091-25.166 25.166-32.862-32.862-64.238 64.237 141.134 141.134 64.237-64.237-32.862-32.862 25.166-25.166 23.091 23.091 234.198-234.199-23.091-23.091 42.844-42.844zm-284.675 362.169-21.81 21.81-98.707-98.707 21.81-21.81zm-11.649-54.076-32.983-32.983 25.166-25.166 32.983 32.983zm-9.694-102.453 49.176-49.176 79.165 79.165-49.176 49.176zm270.937-112.607-26.319 26.319-35.777-35.777-21.213 21.213 35.777 35.777-26.319 26.319-35.777-35.777-21.213 21.213 35.777 35.777-26.319 26.319-79.165-79.165 121.383-121.383zm-1.878-44.305-32.983-32.983 21.632-21.631 32.982 32.982z"/></g></svg>