<svg xmlns="http://www.w3.org/2000/svg" viewBox="0 0 325 300"><defs><style>.a{fill:#d3deef;}.a,.d,.e{stroke:#34465e;stroke-miterlimit:10;stroke-width:4px;}.b,.d{fill:#aec5e3;}.c{fill:#34465e;}.e{fill:none;stroke-linecap:round;}</style></defs><title>t1</title><path class="a" d="M287.84,57.79h17.27a15.13,15.13,0,0,1,15.11,15.15h0V184.17H287.84A15.13,15.13,0,0,1,272.71,169V72.94a15.13,15.13,0,0,1,15.12-15.15Z"/><polygon class="b" points="136.28 74.66 136.28 84.66 126.33 84.66 126.3 74.66 136.28 74.66"/><path class="b" d="M136.28,126.11v85.22l-9.64,6.45-.2-82.51A36.54,36.54,0,0,1,136.28,126.11Z"/><polygon class="b" points="159.2 74.75 159.2 84.86 149.93 84.75 144.51 84.75 144.51 74.75 159.2 74.75"/><path class="b" d="M159.2,120.15V196l-14.71,9.83v-83.7a37.21,37.21,0,0,1,11.93-2Z"/><polygon class="b" points="182.13 74.75 182.13 85.14 167.43 84.97 167.43 74.75 182.13 74.75"/><polygon class="b" points="182.13 120.12 182.13 180.66 167.43 190.49 167.43 120.13 182.13 120.12"/><polygon class="b" points="227.97 74.8 227.97 85.77 190.35 85.3 190.35 74.8 227.97 74.8"/><polygon class="b" points="228.03 120.1 228.03 150.02 213.34 159.85 205.11 165.36 190.41 175.19 190.41 120.15 228.03 120.1"/><path class="b" d="M276.09,74.54v46l-15,9.72-9.52,6.22-16.92,11V120.06h14a9.8,9.8,0,0,0,9.86-9.44l.23-13.72A9.45,9.45,0,0,0,256,90.06a9.94,9.94,0,0,0-7-2.91L234.69,87V74.51Z"/><rect class="c" x="54.93" y="5.33" width="56.42" height="76.26" rx="28.21" ry="28.21"/><path class="c" d="M150,89.68l98.69,1.19a6.22,6.22,0,0,1,6.14,6.29v0l-.2,12.22a6.22,6.22,0,0,1-6.22,6.13l-91.88.09a39.78,39.78,0,0,0-39.78,39.78V291.56a3.11,3.11,0,0,1-3.11,3.11H40.69a3.11,3.11,0,0,1-3.11-3.11V160a3.76,3.76,0,0,0-3.69-3.81h-.06a3.75,3.75,0,0,0-3.75,3.75h0V288.38a6.22,6.22,0,0,1-6.22,6.22H10.75a6.21,6.21,0,0,1-6.22-6.22V155.14A65.45,65.45,0,0,1,70,89.68Z"/><circle class="d" cx="285.71" cy="99.42" r="25.02"/><circle class="c" cx="278.65" cy="98.86" r="11.46"/><path class="b" d="M281.59,151h30v22.48H289.65a8,8,0,0,1-8-8V151Z"/><rect class="a" x="129.52" y="232.94" width="190.96" height="27.62"/><line class="e" x1="152.1" y1="245.52" x2="152.1" y2="234.79"/><line class="e" x1="152.1" y1="245.52" x2="152.1" y2="234.79"/><line class="e" x1="176.05" y1="246.41" x2="176.05" y2="235.68"/><line class="e" x1="199.84" y1="246.12" x2="199.84" y2="235.38"/><line class="e" x1="199.84" y1="246.12" x2="199.84" y2="235.38"/><line class="e" x1="223.8" y1="246.99" x2="223.8" y2="236.27"/><line class="e" x1="247.6" y1="246.71" x2="247.6" y2="235.98"/><line class="e" x1="247.6" y1="246.71" x2="247.6" y2="235.98"/><line class="e" x1="271.55" y1="247.58" x2="271.55" y2="236.85"/><line class="e" x1="295.36" y1="247.28" x2="295.36" y2="236.57"/><line class="e" x1="295.36" y1="247.28" x2="295.36" y2="236.57"/></svg>