<svg xmlns="http://www.w3.org/2000/svg" viewBox="0 0 325 300"><defs><style>.a{fill:#aec5e3;}.b{fill:#34465e;}.c{fill:#d3deef;}</style></defs><title>t1</title><path class="a" d="M200.22,10.71l-43.55.5-6.85.09-50.75.59A4.16,4.16,0,0,0,95,16.1a5.58,5.58,0,0,0,.09.81L97.6,29a13.48,13.48,0,0,1-2.44,10.84L80.59,59.08a6.15,6.15,0,0,0-.41,6.78l8.26,14.72A42.81,42.81,0,0,0,94.71,89l8.66,9.07a31.42,31.42,0,0,1,7.27,12.34l4.89,15.71a60.9,60.9,0,0,1,2.3,10.75,57,57,0,0,1,.43,8.46v.59c0,1.33,0,2.76-.13,4.27-.25,8.95-.61,20.92-1,31.33-.34,10.75-.7,20-.93,22.81l-5.37,63.21a25.35,25.35,0,0,0,25.33,25.35h39.42A25.37,25.37,0,0,0,201,267.56l-6.11-60.09c-.25-2.55-.43-9.52-.56-18.46v-8.27c0-9.48-.12-20.11-.14-29.71V131.7A68.13,68.13,0,0,1,197,112.15l7.06-23.59a96.67,96.67,0,0,0,4-25.61l.71-43.52a8.53,8.53,0,0,0-8.33-8.72Zm-86.34,33V31.78a3.58,3.58,0,0,1,3.59-3.58h13.65a3.58,3.58,0,0,1,2.35,6.25l-13.64,12a3.59,3.59,0,0,1-6-2.69Zm67.94,58.71L180,113.62a4.7,4.7,0,0,0,0,.75L179.8,133a4.91,4.91,0,0,1-4.84,4.84l-20.55.11a4.9,4.9,0,0,1-4.41-7.17l12.6-24.56a5.19,5.19,0,0,1,1.59-1.8l10-6.79a4.87,4.87,0,0,1,7.63,4.84ZM132.59,218l2.2-54.27a5.82,5.82,0,0,1,5.75-5.59l29.66-.43a5.84,5.84,0,0,1,5.91,5.73l.18,11.81a5.78,5.78,0,0,1-1.17,3.58l-32,43a5.84,5.84,0,0,1-10.5-3.58ZM187,47.72c-3.72-4.26-8.4-9.62-11.95-13.65a3.59,3.59,0,0,1,2.69-5.93h11.95a3.58,3.58,0,0,1,3.58,3.58V45.36A3.58,3.58,0,0,1,187,47.72Zm-63.8,223.92.93-16.84a2.73,2.73,0,0,1,2.82-2.6h1.79a2.74,2.74,0,0,1,2.65,2.5l1.08,11.69a2.68,2.68,0,0,0,1,1.8l7,5.89a2.73,2.73,0,0,1-1.72,4.83,2.42,2.42,0,0,1-.88-.14l-12.54-4.38A2.74,2.74,0,0,1,123.18,271.64Zm44,3.69.13-2.09a4.51,4.51,0,0,1,2-3.5l9.37-6.05a4.51,4.51,0,0,0,2-3.69l.25-19.08a4.56,4.56,0,0,0-.79-2.58l-1.79-2.64a4.5,4.5,0,0,1,7.43-5.07,4.43,4.43,0,0,1,.77,2.33l1.92,40.76a4.51,4.51,0,0,1-3.87,4.66l-12.2,1.67a4.49,4.49,0,0,1-5.13-3.72,4.76,4.76,0,0,1-.05-1Z"/><path class="b" d="M208.89,8.92a12,12,0,0,0-8.67-3.59h0L99,6.52a7.74,7.74,0,0,0-7.65,7.82,8.28,8.28,0,0,0,.16,1.49L94.07,28a9.94,9.94,0,0,1-1.79,8L77.75,55.2A9.68,9.68,0,0,0,77,65.82l8.29,14.76a45.72,45.72,0,0,0,6.8,9.14l8.67,9.07a27.92,27.92,0,0,1,6.46,11l4.9,15.6A57.42,57.42,0,0,1,114.71,144c0,1.79-.11,4.06-.2,6.48-.21,7.81-.5,17.92-.82,27.2-.36,11.48-.74,21.64-1,24.53l-5.37,63.22v.31a29,29,0,0,0,28.91,28.92h39.42a29,29,0,0,0,28.92-28.92l-6.15-60.43c-.34-3.34-.54-14.64-.64-27.93,0-8.41-.11-17.6-.13-26.09s0-15.87,0-21.39a64.39,64.39,0,0,1,2.56-18.51l7.17-23.65a100.5,100.5,0,0,0,4.14-26.52l.88-43.52A11.91,11.91,0,0,0,208.89,8.92ZM193.41,109.25a72.31,72.31,0,0,0-3,20.57c0,14.15,0,34,.17,50.16h0c0,4.39.1,8.51.16,12.13h0c.12,6.69.28,11.7.52,13.85l6.14,59.91a21.8,21.8,0,0,1-21.75,21.59H136.23a21.78,21.78,0,0,1-21.76-21.6l5.38-63.07c.5-5.89,1.49-39.25,2-58.6v-2.42a62.44,62.44,0,0,0-1-11,64.88,64.88,0,0,0-1.79-7.56l-4.89-15.73a35.54,35.54,0,0,0-8.14-13.8l-8.76-9A39.62,39.62,0,0,1,91.56,77l-8.3-14.69a2.54,2.54,0,0,1,.2-2.76L98.1,40.25a17,17,0,0,0,3.06-13.74L98.55,14.38A.56.56,0,0,1,99,13.7l.1,0,50.58-.59h7.17l43.39-.59A5.14,5.14,0,0,1,203.81,14a4.84,4.84,0,0,1,1.43,3.58l-.88,43.54a93.17,93.17,0,0,1-3.87,24.65Z"/><polygon class="b" points="174.69 81.73 153.1 94.2 131.51 81.73 131.51 56.81 153.1 44.34 174.69 56.81 174.69 81.73"/><polygon class="b" points="171.23 260.61 154.89 270.05 138.56 260.61 138.56 241.74 154.89 232.32 171.23 241.74 171.23 260.61"/><polygon class="b" points="192.23 146.77 192.54 146.59 206.39 154.6 206.39 170.59 192.54 178.59 192.23 146.77"/><polygon class="b" points="118.27 180.38 104.41 172.39 104.41 156.39 118.27 148.38 118.27 180.38"/><path class="b" d="M153.25,68.54a3.58,3.58,0,0,1-3.59-3.44v-54a3.59,3.59,0,1,1,7.17,0v54A3.58,3.58,0,0,1,153.25,68.54Z"/><path class="b" d="M154,290a3.58,3.58,0,0,1-3.58-3.58V253.1a3.59,3.59,0,0,1,7.17,0v33.27A3.58,3.58,0,0,1,154,290Z"/><path class="b" d="M154.82,240.45a3.53,3.53,0,0,1-2.06-.66,3.58,3.58,0,0,1-.86-5l38.42-54.47a3.59,3.59,0,1,1,5.85,4.16h0l-38.41,54.43A3.58,3.58,0,0,1,154.82,240.45Z"/><path class="b" d="M118.79,141.82a3.53,3.53,0,0,1-2.06-.66,3.59,3.59,0,0,1-.91-5l0,0,35-49.8a3.58,3.58,0,1,1,6,3.93l-.13.19-35,49.86A3.57,3.57,0,0,1,118.79,141.82Z"/><path class="c" d="M79.81,213.51h0A10.64,10.64,0,0,0,69.06,224v-.13A10.65,10.65,0,0,0,58.4,213.47h0a10.91,10.91,0,0,0,10.66-10.75h0A10.74,10.74,0,0,0,79.5,213.47Z"/><path class="c" d="M63.9,190.14h0a10.64,10.64,0,0,0-10.75,10.54v-.06a10.65,10.65,0,0,0-10.59-10.48h0a10.91,10.91,0,0,0,10.75-10.75h0a10.75,10.75,0,0,0,10.44,10.75Z"/><path class="c" d="M282.44,88.05h0a10.63,10.63,0,0,0-10.66,10.59V98.5A10.65,10.65,0,0,0,261,88.05h0A10.94,10.94,0,0,0,271.78,77.3h0a10.75,10.75,0,0,0,10.43,10.75Z"/><path class="c" d="M266.69,56.74h0A10.63,10.63,0,0,0,256,67.32v-.14a10.74,10.74,0,0,0-10.75-10.44h0A10.93,10.93,0,0,0,256,46h0a10.76,10.76,0,0,0,10.43,10.75Z"/></svg>